<svg id="svg" version="1.1" width="512" height="512" xmlns="http://www.w3.org/2000/svg" xmlns:xlink="http://www.w3.org/1999/xlink" ><g id="svgg"><path id="path0" d="M86.098 16.841 C 71.255 20.836,59.709 32.857,56.592 47.561 C 54.956 55.281,54.956 344.719,56.592 352.439 C 59.745 367.312,71.343 379.267,86.431 383.197 C 93.259 384.976,322.063 384.952,329.615 383.172 C 343.421 379.918,354.742 368.930,358.910 354.741 C 360.814 348.258,360.814 51.742,358.910 45.259 C 354.723 31.005,343.484 20.097,329.615 16.828 C 322.307 15.105,92.500 15.118,86.098 16.841 M323.443 32.813 C 331.886 34.415,338.211 39.256,341.690 46.779 L 343.359 50.391 343.359 200.000 L 343.359 349.609 341.690 353.221 C 338.182 360.806,331.827 365.631,323.255 367.215 C 320.471 367.730,279.333 367.930,205.001 367.791 L 91.016 367.578 86.719 365.540 C 81.067 362.860,76.171 357.772,74.216 352.548 C 71.762 345.989,71.762 54.011,74.216 47.452 C 76.858 40.392,84.083 34.347,91.675 32.845 C 96.508 31.889,318.407 31.859,323.443 32.813 M131.250 136.719 C 131.250 184.380,131.484 201.563,132.132 201.563 C 132.618 201.563,138.155 199.658,144.437 197.331 C 200.730 176.476,236.568 171.190,242.599 182.854 C 243.588 184.766,243.750 195.142,243.750 256.602 L 243.750 328.125 262.891 328.125 L 282.031 328.125 282.031 253.289 C 282.031 170.980,282.218 174.420,277.187 164.063 C 265.748 140.512,227.190 135.900,178.504 152.261 L 171.875 154.488 171.875 113.182 L 171.875 71.875 151.563 71.875 L 131.250 71.875 131.250 136.719 M247.266 83.367 C 241.113 96.192,234.089 108.380,228.190 116.465 C 226.006 119.459,224.219 122.077,224.219 122.282 C 224.219 122.488,233.828 122.656,245.573 122.656 L 266.926 122.656 272.330 115.237 C 282.340 101.494,296.875 76.371,296.875 72.813 C 296.875 72.104,291.478 71.886,274.805 71.920 L 252.734 71.966 247.266 83.367 M132.031 287.500 C 132.031 309.414,132.298 327.344,132.623 327.344 C 132.948 327.344,142.174 318.379,153.125 307.422 L 173.035 287.500 153.125 267.578 C 142.174 256.621,132.948 247.656,132.623 247.656 C 132.298 247.656,132.031 265.586,132.031 287.500 " stroke="none" fill="#000000" fill-rule="evenodd"></path></g></svg>