<svg id="svg" version="1.1" width="400" height="400" viewBox="0 0 400 400" xmlns="http://www.w3.org/2000/svg" xmlns:xlink="http://www.w3.org/1999/xlink" ><g id="svgg"><path id="path0" d="M182.700 0.269 C 180.044 0.357,178.000 0.594,178.000 0.813 C 178.000 1.028,176.676 1.200,175.024 1.200 C 173.387 1.200,171.936 1.380,171.800 1.600 C 171.664 1.820,170.494 2.000,169.200 2.000 C 167.906 2.000,166.736 2.180,166.600 2.400 C 166.464 2.620,165.463 2.800,164.376 2.800 C 163.289 2.800,162.400 2.980,162.400 3.200 C 162.400 3.420,161.500 3.600,160.400 3.600 C 159.300 3.600,158.400 3.780,158.400 4.000 C 158.400 4.220,157.601 4.400,156.624 4.400 C 155.647 4.400,154.736 4.580,154.600 4.800 C 154.464 5.020,153.744 5.200,153.000 5.200 C 152.256 5.200,151.536 5.380,151.400 5.600 C 151.264 5.820,150.544 6.000,149.800 6.000 C 149.056 6.000,148.336 6.180,148.200 6.400 C 148.064 6.620,147.423 6.800,146.776 6.800 C 146.129 6.800,145.600 6.980,145.600 7.200 C 145.600 7.420,144.970 7.600,144.200 7.600 C 143.430 7.600,142.800 7.780,142.800 8.000 C 142.800 8.220,142.271 8.400,141.624 8.400 C 140.977 8.400,140.336 8.580,140.200 8.800 C 140.064 9.020,139.524 9.200,139.000 9.200 C 138.476 9.200,137.946 9.363,137.823 9.563 C 137.700 9.762,136.700 10.049,135.600 10.200 C 134.500 10.351,133.500 10.638,133.377 10.837 C 133.254 11.037,132.801 11.200,132.371 11.200 C 131.941 11.200,131.232 11.380,130.795 11.600 C 130.358 11.820,129.642 12.180,129.205 12.400 C 128.768 12.620,128.138 12.800,127.805 12.800 C 127.472 12.800,127.200 12.980,127.200 13.200 C 127.200 13.420,126.761 13.600,126.224 13.600 C 125.687 13.600,125.136 13.780,125.000 14.000 C 124.864 14.220,124.403 14.400,123.976 14.400 C 123.549 14.400,123.200 14.580,123.200 14.800 C 123.200 15.020,122.761 15.200,122.224 15.200 C 121.687 15.200,121.136 15.380,121.000 15.600 C 120.864 15.820,120.403 16.000,119.976 16.000 C 119.549 16.000,119.200 16.180,119.200 16.400 C 119.200 16.620,118.840 16.800,118.400 16.800 C 117.960 16.800,117.600 16.980,117.600 17.200 C 117.600 17.420,117.251 17.600,116.824 17.600 C 116.397 17.600,115.936 17.780,115.800 18.000 C 115.664 18.220,115.203 18.400,114.776 18.400 C 114.349 18.400,114.000 18.580,114.000 18.800 C 114.000 19.020,113.640 19.200,113.200 19.200 C 112.760 19.200,112.400 19.380,112.400 19.600 C 112.400 19.820,112.040 20.000,111.600 20.000 C 111.160 20.000,110.800 20.180,110.800 20.400 C 110.800 20.620,110.440 20.800,110.000 20.800 C 109.560 20.800,109.200 20.980,109.200 21.200 C 109.200 21.420,108.855 21.600,108.433 21.600 C 108.012 21.600,107.607 21.735,107.533 21.900 C 107.460 22.065,106.545 22.633,105.500 23.163 C 104.455 23.692,103.600 24.277,103.600 24.463 C 103.600 24.648,103.240 24.800,102.800 24.800 C 102.360 24.800,102.000 24.980,102.000 25.200 C 102.000 25.420,101.640 25.600,101.200 25.600 C 100.760 25.600,100.400 25.780,100.400 26.000 C 100.400 26.220,100.130 26.400,99.800 26.400 C 99.470 26.400,99.200 26.560,99.200 26.757 C 99.200 26.953,98.762 27.223,98.227 27.357 C 97.176 27.621,92.285 30.727,92.067 31.269 C 91.993 31.451,91.588 31.600,91.167 31.600 C 90.745 31.600,90.400 31.750,90.400 31.932 C 90.400 32.115,89.905 32.520,89.300 32.832 C 88.695 33.145,87.851 33.715,87.425 34.100 C 86.998 34.485,86.479 34.800,86.271 34.800 C 86.064 34.800,85.603 35.116,85.247 35.503 C 84.891 35.889,84.105 36.460,83.500 36.770 C 82.895 37.081,82.400 37.485,82.400 37.668 C 82.400 37.850,82.130 38.000,81.800 38.000 C 81.470 38.000,81.200 38.180,81.200 38.400 C 81.200 38.620,80.970 38.800,80.688 38.800 C 80.407 38.800,79.917 39.160,79.600 39.600 C 79.283 40.040,78.869 40.400,78.680 40.400 C 78.492 40.400,77.646 41.120,76.800 42.000 C 75.954 42.880,75.016 43.600,74.715 43.600 C 74.413 43.600,73.542 44.185,72.779 44.900 C 72.016 45.615,70.590 46.830,69.611 47.600 C 64.848 51.346,47.985 68.296,46.653 70.677 C 46.462 71.019,45.720 71.919,45.006 72.677 C 44.291 73.434,43.457 74.537,43.153 75.127 C 42.849 75.717,42.105 76.677,41.500 77.260 C 40.895 77.844,40.400 78.430,40.400 78.564 C 40.400 78.698,39.860 79.372,39.200 80.063 C 38.540 80.754,38.000 81.522,38.000 81.771 C 38.000 82.020,37.640 82.483,37.200 82.800 C 36.760 83.117,36.400 83.562,36.399 83.788 C 36.399 84.015,35.859 84.830,35.200 85.600 C 34.541 86.370,34.001 87.225,34.001 87.500 C 34.000 87.775,33.850 88.000,33.668 88.000 C 33.485 88.000,33.080 88.495,32.768 89.100 C 32.455 89.705,31.885 90.549,31.500 90.975 C 31.115 91.402,30.800 91.987,30.800 92.275 C 30.800 92.564,30.653 92.800,30.474 92.800 C 30.173 92.800,29.862 93.303,27.756 97.200 C 27.340 97.970,26.865 98.660,26.700 98.733 C 26.535 98.807,26.400 99.212,26.400 99.633 C 26.400 100.055,26.220 100.400,26.000 100.400 C 25.780 100.400,25.600 100.636,25.600 100.925 C 25.600 101.213,25.240 101.836,24.800 102.308 C 24.360 102.780,24.000 103.444,24.000 103.783 C 24.000 104.122,23.820 104.400,23.600 104.400 C 23.380 104.400,23.200 104.760,23.200 105.200 C 23.200 105.640,23.020 106.000,22.800 106.000 C 22.580 106.000,22.400 106.360,22.400 106.800 C 22.400 107.240,22.220 107.600,22.000 107.600 C 21.780 107.600,21.600 107.945,21.600 108.367 C 21.600 108.788,21.463 109.193,21.295 109.267 C 21.127 109.340,20.029 111.380,18.855 113.800 C 17.680 116.220,16.558 118.513,16.360 118.895 C 16.162 119.277,16.000 119.862,16.000 120.195 C 16.000 120.528,15.820 120.800,15.600 120.800 C 15.380 120.800,15.200 121.160,15.200 121.600 C 15.200 122.040,15.020 122.400,14.800 122.400 C 14.580 122.400,14.400 122.839,14.400 123.376 C 14.400 123.913,14.220 124.464,14.000 124.600 C 13.780 124.736,13.600 125.197,13.600 125.624 C 13.600 126.051,13.420 126.400,13.200 126.400 C 12.980 126.400,12.800 126.646,12.800 126.947 C 12.800 127.488,11.450 131.181,10.782 132.465 C 10.592 132.831,10.315 134.046,10.167 135.165 C 10.018 136.284,9.740 137.200,9.548 137.200 C 9.357 137.200,9.200 137.740,9.200 138.400 C 9.200 139.060,9.020 139.600,8.800 139.600 C 8.580 139.600,8.400 140.140,8.400 140.800 C 8.400 141.460,8.220 142.000,8.000 142.000 C 7.780 142.000,7.600 142.529,7.600 143.176 C 7.600 143.823,7.420 144.464,7.200 144.600 C 6.980 144.736,6.800 145.366,6.800 146.000 C 6.800 146.634,6.620 147.264,6.400 147.400 C 6.180 147.536,6.000 148.166,6.000 148.800 C 6.000 149.434,5.820 150.064,5.600 150.200 C 5.380 150.336,5.200 151.157,5.200 152.024 C 5.200 152.891,5.020 153.600,4.800 153.600 C 4.580 153.600,4.400 154.320,4.400 155.200 C 4.400 156.080,4.220 156.800,4.000 156.800 C 3.780 156.800,3.600 157.700,3.600 158.800 C 3.600 159.900,3.420 160.800,3.200 160.800 C 2.980 160.800,2.800 161.689,2.800 162.776 C 2.800 163.863,2.620 164.864,2.400 165.000 C 2.180 165.136,2.000 166.126,2.000 167.200 C 2.000 168.274,1.820 169.264,1.600 169.400 C 1.380 169.536,1.200 170.972,1.200 172.590 C 1.200 174.589,1.040 175.587,0.700 175.700 C -0.030 175.943,-0.030 224.130,0.700 224.860 C 1.002 225.162,1.200 226.437,1.200 228.080 C 1.200 229.627,1.373 230.800,1.600 230.800 C 1.820 230.800,2.000 231.779,2.000 232.976 C 2.000 234.173,2.180 235.264,2.400 235.400 C 2.620 235.536,2.800 236.526,2.800 237.600 C 2.800 238.674,2.980 239.664,3.200 239.800 C 3.420 239.936,3.600 240.757,3.600 241.624 C 3.600 242.491,3.780 243.200,4.000 243.200 C 4.220 243.200,4.400 243.909,4.400 244.776 C 4.400 245.643,4.580 246.464,4.800 246.600 C 5.020 246.736,5.200 247.546,5.200 248.400 C 5.200 249.254,5.380 250.064,5.600 250.200 C 5.820 250.336,6.000 250.966,6.000 251.600 C 6.000 252.234,6.180 252.864,6.400 253.000 C 6.620 253.136,6.800 253.766,6.800 254.400 C 6.800 255.034,6.980 255.664,7.200 255.800 C 7.420 255.936,7.600 256.577,7.600 257.224 C 7.600 257.871,7.780 258.400,8.000 258.400 C 8.220 258.400,8.400 259.030,8.400 259.800 C 8.400 260.570,8.580 261.200,8.800 261.200 C 9.020 261.200,9.200 261.740,9.200 262.400 C 9.200 263.060,9.380 263.600,9.600 263.600 C 9.820 263.600,10.000 263.954,10.000 264.386 C 10.000 265.271,11.022 268.636,11.613 269.695 C 11.826 270.077,12.000 270.580,12.000 270.814 C 12.000 271.048,12.360 271.984,12.800 272.894 C 13.240 273.805,13.600 274.876,13.600 275.275 C 13.600 275.674,13.780 276.000,14.000 276.000 C 14.220 276.000,14.400 276.272,14.400 276.605 C 14.400 276.938,14.580 277.568,14.800 278.005 C 15.020 278.442,15.380 279.158,15.600 279.595 C 15.820 280.032,16.000 280.662,16.000 280.995 C 16.000 281.328,16.180 281.600,16.400 281.600 C 16.620 281.600,16.800 281.960,16.800 282.400 C 16.800 282.840,16.980 283.200,17.200 283.200 C 17.420 283.200,17.600 283.560,17.600 284.000 C 17.600 284.440,17.780 284.800,18.000 284.800 C 18.220 284.800,18.400 285.149,18.400 285.576 C 18.400 286.003,18.580 286.464,18.800 286.600 C 19.020 286.736,19.200 287.182,19.200 287.590 C 19.200 287.999,19.335 288.393,19.500 288.467 C 19.665 288.540,20.205 289.365,20.700 290.300 C 21.195 291.235,22.005 292.765,22.500 293.700 C 22.995 294.635,23.535 295.460,23.700 295.533 C 23.865 295.607,24.000 296.012,24.000 296.433 C 24.000 296.855,24.180 297.200,24.400 297.200 C 24.620 297.200,24.800 297.560,24.800 298.000 C 24.800 298.440,24.980 298.800,25.200 298.800 C 25.420 298.800,25.600 299.036,25.600 299.325 C 25.600 299.613,25.960 300.236,26.400 300.708 C 26.840 301.180,27.200 301.802,27.200 302.090 C 27.200 302.379,27.650 303.277,28.200 304.086 C 28.750 304.895,29.200 305.747,29.200 305.979 C 29.200 306.210,29.358 306.400,29.551 306.400 C 29.745 306.400,30.127 306.940,30.400 307.600 C 30.673 308.260,31.055 308.800,31.249 308.800 C 31.442 308.800,31.600 309.036,31.600 309.325 C 31.600 309.613,31.960 310.236,32.400 310.708 C 32.840 311.180,33.200 311.709,33.201 311.883 C 33.201 312.057,33.741 312.830,34.400 313.600 C 35.059 314.370,35.599 315.185,35.599 315.412 C 35.600 315.638,35.960 316.083,36.400 316.400 C 36.840 316.717,37.200 317.173,37.200 317.413 C 37.200 317.653,37.520 318.198,37.911 318.625 C 38.302 319.051,39.058 320.030,39.592 320.800 C 40.125 321.570,40.886 322.491,41.281 322.847 C 41.676 323.203,42.000 323.632,42.000 323.800 C 42.000 323.968,42.317 324.397,42.703 324.753 C 43.090 325.109,43.928 326.170,44.565 327.110 C 45.202 328.051,46.686 329.822,47.862 331.046 C 49.038 332.270,50.000 333.418,50.000 333.596 C 50.000 333.873,51.763 335.678,58.794 342.600 C 59.465 343.260,61.157 344.970,62.555 346.400 C 65.203 349.108,66.650 350.400,67.036 350.400 C 67.161 350.400,67.924 351.077,68.731 351.905 C 69.539 352.733,71.010 354.037,72.000 354.802 C 72.990 355.567,74.160 356.525,74.600 356.930 C 75.040 357.336,75.895 357.927,76.500 358.244 C 77.105 358.561,77.600 358.957,77.600 359.124 C 77.600 359.291,78.095 359.721,78.700 360.079 C 79.305 360.437,80.340 361.196,81.000 361.765 C 81.660 362.334,82.385 362.799,82.612 362.800 C 82.838 362.800,83.283 363.160,83.600 363.600 C 83.917 364.040,84.362 364.400,84.588 364.401 C 84.815 364.401,85.630 364.941,86.400 365.600 C 87.170 366.259,87.943 366.799,88.117 366.799 C 88.291 366.800,88.820 367.160,89.292 367.600 C 89.764 368.040,90.387 368.400,90.675 368.400 C 90.964 368.400,91.200 368.558,91.200 368.751 C 91.200 368.945,91.740 369.327,92.400 369.600 C 93.060 369.873,93.600 370.255,93.600 370.449 C 93.600 370.642,93.836 370.800,94.125 370.800 C 94.413 370.800,94.998 371.121,95.425 371.513 C 95.851 371.905,96.830 372.530,97.600 372.901 C 98.370 373.272,99.540 373.939,100.200 374.385 C 100.860 374.830,101.715 375.196,102.100 375.197 C 102.485 375.199,102.800 375.380,102.800 375.600 C 102.800 375.820,103.145 376.000,103.567 376.000 C 103.988 376.000,104.393 376.135,104.467 376.300 C 104.540 376.465,105.320 376.981,106.200 377.447 C 107.080 377.912,108.610 378.722,109.600 379.247 C 110.590 379.771,111.460 380.335,111.533 380.500 C 111.607 380.665,112.001 380.800,112.410 380.800 C 112.818 380.800,113.264 380.980,113.400 381.200 C 113.536 381.420,113.997 381.600,114.424 381.600 C 114.851 381.600,115.200 381.780,115.200 382.000 C 115.200 382.220,115.560 382.400,116.000 382.400 C 116.440 382.400,116.800 382.580,116.800 382.800 C 116.800 383.020,117.160 383.200,117.600 383.200 C 118.040 383.200,118.400 383.380,118.400 383.600 C 118.400 383.820,118.672 384.000,119.005 384.000 C 119.338 384.000,119.968 384.180,120.405 384.400 C 120.842 384.620,121.558 384.980,121.995 385.200 C 122.432 385.420,123.062 385.600,123.395 385.600 C 123.728 385.600,124.000 385.780,124.000 386.000 C 124.000 386.220,124.362 386.400,124.805 386.400 C 125.248 386.400,125.923 386.559,126.305 386.753 C 127.040 387.127,128.799 387.876,130.300 388.454 C 130.795 388.644,131.605 388.965,132.100 389.167 C 132.595 389.368,133.360 389.623,133.800 389.732 C 134.240 389.841,135.631 390.306,136.890 390.765 C 138.150 391.224,139.725 391.600,140.390 391.600 C 141.056 391.600,141.600 391.780,141.600 392.000 C 141.600 392.220,142.230 392.400,143.000 392.400 C 143.770 392.400,144.400 392.580,144.400 392.800 C 144.400 393.020,144.929 393.200,145.576 393.200 C 146.223 393.200,146.864 393.380,147.000 393.600 C 147.136 393.820,147.766 394.000,148.400 394.000 C 149.034 394.000,149.664 394.180,149.800 394.400 C 149.936 394.620,150.746 394.800,151.600 394.800 C 152.454 394.800,153.264 394.980,153.400 395.200 C 153.536 395.420,154.357 395.600,155.224 395.600 C 156.091 395.600,156.800 395.780,156.800 396.000 C 156.800 396.220,157.509 396.400,158.376 396.400 C 159.243 396.400,160.064 396.580,160.200 396.800 C 160.336 397.020,161.326 397.200,162.400 397.200 C 163.474 397.200,164.464 397.380,164.600 397.600 C 164.736 397.820,165.827 398.000,167.024 398.000 C 168.221 398.000,169.200 398.166,169.200 398.368 C 169.200 398.571,170.505 398.832,172.100 398.949 C 173.695 399.066,177.520 399.363,180.600 399.610 C 188.232 400.221,224.085 399.946,224.309 399.274 C 224.411 398.966,225.496 398.800,227.410 398.800 C 229.028 398.800,230.464 398.620,230.600 398.400 C 230.736 398.180,231.726 398.000,232.800 398.000 C 233.874 398.000,234.864 397.820,235.000 397.600 C 235.136 397.380,236.126 397.200,237.200 397.200 C 238.274 397.200,239.264 397.020,239.400 396.800 C 239.536 396.580,240.447 396.400,241.424 396.400 C 242.401 396.400,243.200 396.220,243.200 396.000 C 243.200 395.780,243.920 395.600,244.800 395.600 C 245.680 395.600,246.400 395.420,246.400 395.200 C 246.400 394.980,247.120 394.800,248.000 394.800 C 248.880 394.800,249.600 394.620,249.600 394.400 C 249.600 394.180,250.320 394.000,251.200 394.000 C 252.080 394.000,252.800 393.820,252.800 393.600 C 252.800 393.380,253.329 393.200,253.976 393.200 C 254.623 393.200,255.264 393.020,255.400 392.800 C 255.536 392.580,256.177 392.400,256.824 392.400 C 257.471 392.400,258.000 392.241,258.000 392.046 C 258.000 391.851,258.987 391.569,260.194 391.418 C 261.400 391.267,262.491 390.977,262.617 390.772 C 262.744 390.567,263.276 390.400,263.800 390.400 C 264.324 390.400,264.864 390.220,265.000 390.000 C 265.136 389.780,265.676 389.600,266.200 389.600 C 266.724 389.600,267.264 389.420,267.400 389.200 C 267.536 388.980,267.991 388.800,268.411 388.800 C 268.832 388.800,269.817 388.440,270.600 388.000 C 271.383 387.560,272.379 387.200,272.812 387.200 C 273.245 387.200,273.600 387.020,273.600 386.800 C 273.600 386.580,273.949 386.400,274.376 386.400 C 274.803 386.400,275.264 386.220,275.400 386.000 C 275.536 385.780,276.087 385.600,276.624 385.600 C 277.161 385.600,277.600 385.420,277.600 385.200 C 277.600 384.980,277.960 384.800,278.400 384.800 C 278.840 384.800,279.200 384.620,279.200 384.400 C 279.200 384.180,279.472 384.000,279.805 384.000 C 280.393 384.000,280.818 383.833,282.695 382.862 C 283.187 382.608,283.862 382.400,284.195 382.400 C 284.528 382.400,284.800 382.220,284.800 382.000 C 284.800 381.780,285.160 381.600,285.600 381.600 C 286.040 381.600,286.400 381.420,286.400 381.200 C 286.400 380.980,286.760 380.800,287.200 380.800 C 287.640 380.800,288.000 380.620,288.000 380.400 C 288.000 380.180,288.360 380.000,288.800 380.000 C 289.240 380.000,289.600 379.854,289.600 379.675 C 289.600 379.496,290.230 379.102,291.000 378.800 C 291.770 378.498,292.400 378.104,292.400 377.925 C 292.400 377.746,292.760 377.600,293.200 377.600 C 293.640 377.600,294.000 377.420,294.000 377.200 C 294.000 376.980,294.360 376.800,294.800 376.800 C 295.240 376.800,295.600 376.620,295.600 376.400 C 295.600 376.180,295.945 376.000,296.367 376.000 C 296.788 376.000,297.193 375.858,297.267 375.684 C 297.385 375.404,300.153 373.847,302.697 372.629 C 303.190 372.393,303.595 372.065,303.597 371.900 C 303.599 371.735,303.836 371.600,304.125 371.600 C 304.413 371.600,304.998 371.285,305.425 370.900 C 305.851 370.515,306.692 369.946,307.293 369.636 C 307.895 369.326,308.705 368.786,309.093 368.436 C 309.482 368.086,310.295 367.545,310.900 367.232 C 311.505 366.920,312.000 366.515,312.000 366.332 C 312.000 366.150,312.225 366.000,312.500 365.999 C 312.775 365.999,313.630 365.459,314.400 364.800 C 315.170 364.141,315.985 363.601,316.212 363.601 C 316.438 363.600,316.883 363.240,317.200 362.800 C 317.517 362.360,317.980 362.000,318.229 362.000 C 318.478 362.000,319.246 361.460,319.937 360.800 C 320.628 360.140,321.297 359.600,321.425 359.600 C 321.553 359.600,321.909 359.375,322.218 359.100 C 322.526 358.825,323.512 358.060,324.408 357.400 C 325.305 356.740,326.615 355.657,327.319 354.993 C 328.024 354.330,329.201 353.361,329.935 352.841 C 333.293 350.463,351.261 332.427,352.517 330.174 C 352.754 329.748,353.590 328.764,354.374 327.987 C 355.937 326.439,357.050 325.043,358.667 322.600 C 359.249 321.720,360.057 320.709,360.463 320.353 C 360.868 319.997,361.200 319.547,361.201 319.353 C 361.201 319.159,361.741 318.370,362.400 317.600 C 363.059 316.830,363.599 316.041,363.599 315.847 C 363.600 315.653,363.916 315.203,364.303 314.847 C 364.689 314.491,365.260 313.705,365.570 313.100 C 365.881 312.495,366.285 312.000,366.468 312.000 C 366.650 312.000,366.800 311.706,366.800 311.347 C 366.800 310.988,367.116 310.403,367.503 310.047 C 367.889 309.691,368.460 308.905,368.770 308.300 C 369.081 307.695,369.485 307.200,369.668 307.200 C 369.850 307.200,370.000 307.007,370.000 306.772 C 370.000 306.537,370.501 305.592,371.112 304.672 C 371.724 303.752,372.489 302.460,372.812 301.800 C 373.136 301.140,373.805 299.990,374.300 299.244 C 374.795 298.498,375.200 297.568,375.200 297.178 C 375.200 296.787,375.335 296.407,375.500 296.333 C 375.770 296.213,376.978 294.111,378.160 291.703 C 378.402 291.210,378.735 290.805,378.900 290.803 C 379.065 290.801,379.200 290.440,379.200 290.000 C 379.200 289.560,379.380 289.200,379.600 289.200 C 379.820 289.200,380.000 288.840,380.000 288.400 C 380.000 287.960,380.180 287.600,380.400 287.600 C 380.620 287.600,380.800 287.251,380.800 286.824 C 380.800 286.397,380.980 285.936,381.200 285.800 C 381.420 285.664,381.600 285.203,381.600 284.776 C 381.600 284.349,381.780 284.000,382.000 284.000 C 382.220 284.000,382.400 283.640,382.400 283.200 C 382.400 282.760,382.580 282.400,382.800 282.400 C 383.020 282.400,383.200 282.040,383.200 281.600 C 383.200 281.160,383.380 280.800,383.600 280.800 C 383.820 280.800,384.000 280.451,384.000 280.024 C 384.000 279.597,384.180 279.136,384.400 279.000 C 384.620 278.864,384.800 278.313,384.800 277.776 C 384.800 277.239,384.980 276.800,385.200 276.800 C 385.420 276.800,385.600 276.528,385.600 276.195 C 385.600 275.862,385.759 275.277,385.953 274.895 C 386.317 274.179,387.011 272.554,387.700 270.800 C 387.916 270.250,388.252 269.487,388.447 269.105 C 388.641 268.723,388.800 268.059,388.800 267.629 C 388.800 267.199,388.980 266.736,389.200 266.600 C 389.420 266.464,389.600 265.924,389.600 265.400 C 389.600 264.876,389.780 264.336,390.000 264.200 C 390.220 264.064,390.400 263.524,390.400 263.000 C 390.400 262.476,390.567 261.944,390.772 261.817 C 390.977 261.691,391.267 260.600,391.418 259.394 C 391.569 258.187,391.851 257.200,392.046 257.200 C 392.241 257.200,392.400 256.570,392.400 255.800 C 392.400 255.030,392.580 254.400,392.800 254.400 C 393.020 254.400,393.200 253.871,393.200 253.224 C 393.200 252.577,393.380 251.936,393.600 251.800 C 393.820 251.664,394.000 250.944,394.000 250.200 C 394.000 249.456,394.180 248.736,394.400 248.600 C 394.620 248.464,394.800 247.654,394.800 246.800 C 394.800 245.946,394.980 245.136,395.200 245.000 C 395.420 244.864,395.600 244.043,395.600 243.176 C 395.600 242.309,395.780 241.600,396.000 241.600 C 396.220 241.600,396.400 240.700,396.400 239.600 C 396.400 238.500,396.580 237.600,396.800 237.600 C 397.020 237.600,397.200 236.610,397.200 235.400 C 397.200 234.190,397.365 233.200,397.566 233.200 C 397.909 233.200,398.071 231.962,398.642 225.000 C 398.768 223.460,399.080 221.947,399.336 221.639 C 400.031 220.798,399.996 179.436,399.300 178.740 C 398.991 178.431,398.800 177.123,398.800 175.320 C 398.800 173.640,398.630 172.400,398.400 172.400 C 398.175 172.400,398.000 171.275,398.000 169.824 C 398.000 168.407,397.820 167.136,397.600 167.000 C 397.380 166.864,397.200 165.863,397.200 164.776 C 397.200 163.689,397.020 162.800,396.800 162.800 C 396.580 162.800,396.400 161.810,396.400 160.600 C 396.400 159.390,396.220 158.400,396.000 158.400 C 395.780 158.400,395.600 157.680,395.600 156.800 C 395.600 155.920,395.420 155.200,395.200 155.200 C 394.980 155.200,394.800 154.480,394.800 153.600 C 394.800 152.720,394.620 152.000,394.400 152.000 C 394.180 152.000,394.000 151.280,394.000 150.400 C 394.000 149.520,393.820 148.800,393.600 148.800 C 393.380 148.800,393.200 148.170,393.200 147.400 C 393.200 146.630,393.020 146.000,392.800 146.000 C 392.580 146.000,392.400 145.460,392.400 144.800 C 392.400 144.140,392.220 143.600,392.000 143.600 C 391.780 143.600,391.600 142.973,391.600 142.206 C 391.600 140.502,389.006 132.361,387.553 129.505 C 387.359 129.123,387.200 128.448,387.200 128.005 C 387.200 127.562,387.020 127.200,386.800 127.200 C 386.580 127.200,386.400 126.840,386.400 126.400 C 386.400 125.960,386.220 125.600,386.000 125.600 C 385.780 125.600,385.600 125.060,385.600 124.400 C 385.600 123.740,385.420 123.200,385.200 123.200 C 384.980 123.200,384.800 122.840,384.800 122.400 C 384.800 121.960,384.620 121.600,384.400 121.600 C 384.180 121.600,384.000 121.328,384.000 120.995 C 384.000 120.662,383.843 120.077,383.650 119.695 C 382.152 116.720,381.600 115.447,381.600 114.962 C 381.600 114.653,381.420 114.400,381.200 114.400 C 380.980 114.400,380.800 114.040,380.800 113.600 C 380.800 113.160,380.654 112.800,380.475 112.800 C 380.296 112.800,379.902 112.170,379.600 111.400 C 379.298 110.630,378.904 110.000,378.725 110.000 C 378.546 110.000,378.400 109.640,378.400 109.200 C 378.400 108.760,378.220 108.400,378.000 108.400 C 377.780 108.400,377.600 108.040,377.600 107.600 C 377.600 107.160,377.420 106.800,377.200 106.800 C 376.980 106.800,376.800 106.440,376.800 106.000 C 376.800 105.560,376.620 105.200,376.400 105.200 C 376.180 105.200,376.000 104.855,376.000 104.433 C 376.000 104.012,375.865 103.607,375.700 103.533 C 375.535 103.460,375.046 102.680,374.612 101.800 C 374.179 100.920,373.144 99.057,372.312 97.659 C 371.481 96.262,370.800 94.996,370.800 94.847 C 370.800 94.698,370.440 94.317,370.000 94.000 C 369.560 93.683,369.200 93.186,369.200 92.895 C 369.200 92.604,368.840 91.980,368.400 91.508 C 367.960 91.036,367.600 90.413,367.600 90.125 C 367.600 89.836,367.420 89.600,367.200 89.600 C 366.980 89.600,366.800 89.357,366.800 89.059 C 366.800 88.762,366.260 87.954,365.600 87.263 C 364.940 86.572,364.400 85.775,364.400 85.492 C 364.400 85.209,364.040 84.717,363.600 84.400 C 363.160 84.083,362.800 83.627,362.800 83.387 C 362.800 83.147,362.480 82.602,362.089 82.175 C 361.698 81.749,360.942 80.770,360.408 80.000 C 359.875 79.230,359.339 78.510,359.217 78.400 C 359.095 78.290,358.466 77.480,357.818 76.600 C 357.171 75.720,356.317 74.709,355.921 74.353 C 355.524 73.997,355.200 73.542,355.200 73.341 C 355.200 73.139,354.345 72.073,353.300 70.971 C 352.255 69.869,350.876 68.274,350.235 67.425 C 349.594 66.577,347.753 64.604,346.143 63.041 C 342.555 59.558,342.391 59.394,337.818 54.715 C 335.789 52.638,333.431 50.412,332.579 49.769 C 331.727 49.126,330.226 47.835,329.243 46.900 C 328.261 45.965,327.337 45.200,327.190 45.200 C 327.043 45.200,326.490 44.829,325.961 44.376 C 325.433 43.922,324.594 43.202,324.097 42.776 C 323.600 42.349,323.088 42.000,322.957 42.000 C 322.827 42.000,322.217 41.460,321.600 40.800 C 320.983 40.140,320.326 39.600,320.140 39.599 C 319.953 39.599,319.170 39.059,318.400 38.400 C 317.630 37.741,316.815 37.201,316.588 37.201 C 316.362 37.200,315.917 36.840,315.600 36.400 C 315.283 35.960,314.838 35.600,314.612 35.599 C 314.385 35.599,313.570 35.059,312.800 34.400 C 312.030 33.741,311.175 33.201,310.900 33.201 C 310.625 33.200,310.400 33.020,310.400 32.800 C 310.400 32.580,310.164 32.400,309.875 32.400 C 309.587 32.400,308.964 32.040,308.492 31.600 C 308.020 31.160,307.474 30.800,307.279 30.800 C 307.084 30.800,306.598 30.440,306.200 30.000 C 305.802 29.560,305.320 29.200,305.130 29.200 C 304.940 29.200,304.071 28.750,303.200 28.200 C 302.329 27.650,301.342 27.200,301.008 27.200 C 300.674 27.200,300.400 27.020,300.400 26.800 C 300.400 26.580,300.080 26.400,299.688 26.400 C 299.297 26.400,298.717 26.040,298.400 25.600 C 298.083 25.160,297.503 24.800,297.112 24.800 C 296.720 24.800,296.400 24.620,296.400 24.400 C 296.400 24.180,296.040 24.000,295.600 24.000 C 295.160 24.000,294.800 23.820,294.800 23.600 C 294.800 23.380,294.440 23.200,294.000 23.200 C 293.560 23.200,293.200 23.020,293.200 22.800 C 293.200 22.580,292.840 22.400,292.400 22.400 C 291.960 22.400,291.600 22.254,291.600 22.075 C 291.600 21.896,290.970 21.502,290.200 21.200 C 289.430 20.898,288.800 20.504,288.800 20.325 C 288.800 20.146,288.440 20.000,288.000 20.000 C 287.560 20.000,287.200 19.820,287.200 19.600 C 287.200 19.380,286.840 19.200,286.400 19.200 C 285.960 19.200,285.600 19.020,285.600 18.800 C 285.600 18.580,285.240 18.400,284.800 18.400 C 284.360 18.400,284.000 18.220,284.000 18.000 C 284.000 17.780,283.728 17.600,283.395 17.600 C 283.062 17.600,282.387 17.392,281.895 17.138 C 280.018 16.167,279.593 16.000,279.005 16.000 C 278.672 16.000,278.400 15.820,278.400 15.600 C 278.400 15.380,278.040 15.200,277.600 15.200 C 277.160 15.200,276.800 15.020,276.800 14.800 C 276.800 14.580,276.438 14.400,275.995 14.400 C 275.552 14.400,274.877 14.241,274.495 14.047 C 273.845 13.716,273.047 13.379,270.600 12.400 C 270.050 12.180,269.195 11.829,268.700 11.620 C 266.775 10.808,263.926 10.000,262.986 10.000 C 262.444 10.000,262.000 9.820,262.000 9.600 C 262.000 9.380,261.460 9.200,260.800 9.200 C 260.140 9.200,259.600 9.020,259.600 8.800 C 259.600 8.580,259.071 8.400,258.424 8.400 C 257.777 8.400,257.136 8.220,257.000 8.000 C 256.864 7.780,256.234 7.600,255.600 7.600 C 254.966 7.600,254.336 7.420,254.200 7.200 C 254.064 6.980,253.434 6.800,252.800 6.800 C 252.166 6.800,251.536 6.620,251.400 6.400 C 251.264 6.180,250.544 6.000,249.800 6.000 C 249.056 6.000,248.336 5.820,248.200 5.600 C 248.064 5.380,247.243 5.200,246.376 5.200 C 245.509 5.200,244.800 5.020,244.800 4.800 C 244.800 4.580,244.080 4.400,243.200 4.400 C 242.320 4.400,241.600 4.220,241.600 4.000 C 241.600 3.780,240.711 3.600,239.624 3.600 C 238.537 3.600,237.536 3.420,237.400 3.200 C 237.264 2.980,236.263 2.800,235.176 2.800 C 234.089 2.800,233.200 2.620,233.200 2.400 C 233.200 2.175,232.075 2.000,230.624 2.000 C 229.207 2.000,227.936 1.820,227.800 1.600 C 227.664 1.380,226.339 1.200,224.856 1.200 C 223.373 1.200,221.963 1.003,221.722 0.762 C 221.271 0.311,192.385 -0.054,182.700 0.269 M213.200 42.000 C 213.200 42.235,214.592 42.400,216.576 42.400 C 218.433 42.400,220.064 42.580,220.200 42.800 C 220.336 43.020,221.607 43.200,223.024 43.200 C 224.475 43.200,225.600 43.375,225.600 43.600 C 225.600 43.820,226.590 44.000,227.800 44.000 C 229.010 44.000,230.000 44.180,230.000 44.400 C 230.000 44.620,230.799 44.800,231.776 44.800 C 232.753 44.800,233.664 44.980,233.800 45.200 C 233.936 45.420,234.757 45.600,235.624 45.600 C 236.491 45.600,237.200 45.780,237.200 46.000 C 237.200 46.220,237.920 46.400,238.800 46.400 C 239.680 46.400,240.400 46.580,240.400 46.800 C 240.400 47.020,240.929 47.200,241.576 47.200 C 242.223 47.200,242.864 47.380,243.000 47.600 C 243.136 47.820,243.867 48.000,244.624 48.000 C 245.381 48.000,246.000 48.180,246.000 48.400 C 246.000 48.620,246.439 48.800,246.976 48.800 C 247.513 48.800,248.064 48.980,248.200 49.200 C 248.336 49.420,248.876 49.600,249.400 49.600 C 249.924 49.600,250.464 49.780,250.600 50.000 C 250.736 50.220,251.287 50.400,251.824 50.400 C 252.361 50.400,252.800 50.580,252.800 50.800 C 252.800 51.020,253.340 51.200,254.000 51.200 C 254.660 51.200,255.200 51.380,255.200 51.600 C 255.200 51.820,255.549 52.000,255.976 52.000 C 256.403 52.000,256.864 52.180,257.000 52.400 C 257.136 52.620,257.687 52.800,258.224 52.800 C 258.761 52.800,259.200 52.980,259.200 53.200 C 259.200 53.420,259.472 53.600,259.805 53.600 C 260.138 53.600,260.723 53.764,261.105 53.965 C 263.966 55.466,271.356 58.800,271.823 58.800 C 272.140 58.800,272.400 58.980,272.400 59.200 C 272.400 59.420,272.760 59.600,273.200 59.600 C 273.640 59.600,274.000 59.780,274.000 60.000 C 274.000 60.220,274.360 60.400,274.800 60.400 C 275.240 60.400,275.600 60.580,275.600 60.800 C 275.600 61.020,275.878 61.200,276.217 61.200 C 276.556 61.200,277.220 61.560,277.692 62.000 C 278.164 62.440,279.056 63.024,279.675 63.297 C 280.294 63.571,280.800 63.931,280.800 64.098 C 280.800 64.264,281.160 64.400,281.600 64.400 C 282.040 64.400,282.400 64.550,282.400 64.732 C 282.400 64.915,282.895 65.320,283.500 65.632 C 284.105 65.945,284.949 66.515,285.375 66.900 C 285.802 67.285,286.387 67.600,286.675 67.600 C 286.964 67.600,287.200 67.780,287.200 68.000 C 287.200 68.220,287.425 68.400,287.700 68.401 C 287.975 68.401,288.830 68.941,289.600 69.600 C 290.370 70.259,291.185 70.799,291.412 70.799 C 291.638 70.800,292.083 71.160,292.400 71.600 C 292.717 72.040,293.132 72.400,293.321 72.400 C 293.510 72.400,294.434 73.030,295.374 73.800 C 296.314 74.570,297.217 75.200,297.381 75.200 C 297.545 75.200,298.183 75.740,298.800 76.400 C 299.417 77.060,300.119 77.600,300.360 77.600 C 300.602 77.600,300.800 77.780,300.800 78.000 C 300.800 78.220,300.992 78.400,301.226 78.400 C 301.460 78.400,302.495 79.255,303.526 80.300 C 304.557 81.345,306.390 83.009,307.600 83.998 C 308.810 84.988,309.980 86.014,310.200 86.280 C 310.859 87.075,317.244 93.901,319.500 96.222 C 320.655 97.411,321.600 98.567,321.600 98.791 C 321.600 99.016,321.780 99.200,322.000 99.200 C 322.220 99.200,322.400 99.398,322.400 99.640 C 322.400 99.881,322.940 100.583,323.600 101.200 C 324.260 101.817,324.800 102.492,324.800 102.701 C 324.800 102.910,325.340 103.646,326.000 104.337 C 326.660 105.028,327.200 105.684,327.200 105.795 C 327.200 106.043,329.998 110.004,330.667 110.702 C 330.931 110.979,331.262 111.564,331.401 112.002 C 331.540 112.441,331.822 112.800,332.027 112.800 C 332.232 112.800,332.400 113.036,332.400 113.325 C 332.400 113.613,332.760 114.236,333.200 114.708 C 333.640 115.180,334.000 115.804,334.000 116.095 C 334.000 116.386,334.360 116.883,334.800 117.200 C 335.240 117.517,335.600 118.097,335.600 118.488 C 335.600 118.880,335.780 119.200,336.000 119.200 C 336.220 119.200,336.400 119.393,336.400 119.628 C 336.400 119.863,336.911 120.808,337.535 121.728 C 338.159 122.648,338.923 123.985,339.232 124.700 C 339.542 125.415,339.931 126.000,340.098 126.000 C 340.264 126.000,340.400 126.360,340.400 126.800 C 340.400 127.240,340.580 127.600,340.800 127.600 C 341.020 127.600,341.200 127.960,341.200 128.400 C 341.200 128.840,341.380 129.200,341.600 129.200 C 341.820 129.200,342.000 129.560,342.000 130.000 C 342.000 130.440,342.180 130.800,342.400 130.800 C 342.620 130.800,342.800 131.160,342.800 131.600 C 342.800 132.040,342.980 132.400,343.200 132.400 C 343.420 132.400,343.600 132.687,343.600 133.038 C 343.600 133.390,344.230 135.004,345.000 136.627 C 345.770 138.250,346.400 139.765,346.400 139.994 C 346.400 140.223,346.580 140.768,346.800 141.205 C 347.020 141.642,347.380 142.358,347.600 142.795 C 347.820 143.232,348.000 143.862,348.000 144.195 C 348.000 144.528,348.180 144.800,348.400 144.800 C 348.620 144.800,348.800 145.340,348.800 146.000 C 348.800 146.660,348.980 147.200,349.200 147.200 C 349.420 147.200,349.600 147.740,349.600 148.400 C 349.600 149.060,349.780 149.600,350.000 149.600 C 350.220 149.600,350.400 150.140,350.400 150.800 C 350.400 151.460,350.580 152.000,350.800 152.000 C 351.020 152.000,351.200 152.439,351.200 152.976 C 351.200 153.513,351.380 154.064,351.600 154.200 C 351.820 154.336,352.000 155.067,352.000 155.824 C 352.000 156.581,352.180 157.200,352.400 157.200 C 352.620 157.200,352.800 157.740,352.800 158.400 C 352.800 159.060,352.980 159.600,353.200 159.600 C 353.420 159.600,353.600 160.320,353.600 161.200 C 353.600 162.080,353.780 162.800,354.000 162.800 C 354.220 162.800,354.400 163.599,354.400 164.576 C 354.400 165.553,354.580 166.464,354.800 166.600 C 355.020 166.736,355.200 167.546,355.200 168.400 C 355.200 169.254,355.380 170.064,355.600 170.200 C 355.820 170.336,356.000 171.337,356.000 172.424 C 356.000 173.511,356.180 174.400,356.400 174.400 C 356.629 174.400,356.800 175.600,356.800 177.200 C 356.800 178.800,356.971 180.000,357.200 180.000 C 357.437 180.000,357.600 181.459,357.600 183.576 C 357.600 185.543,357.780 187.264,358.000 187.400 C 358.253 187.556,358.400 192.263,358.400 200.200 C 358.400 208.137,358.253 212.844,358.000 213.000 C 357.780 213.136,357.600 214.756,357.600 216.600 C 357.600 218.444,357.420 220.064,357.200 220.200 C 356.980 220.336,356.800 221.607,356.800 223.024 C 356.800 224.475,356.625 225.600,356.400 225.600 C 356.180 225.600,356.000 226.579,356.000 227.776 C 356.000 228.973,355.820 230.064,355.600 230.200 C 355.380 230.336,355.200 231.247,355.200 232.224 C 355.200 233.201,355.020 234.000,354.800 234.000 C 354.580 234.000,354.400 234.720,354.400 235.600 C 354.400 236.480,354.220 237.200,354.000 237.200 C 353.780 237.200,353.600 237.920,353.600 238.800 C 353.600 239.680,353.420 240.400,353.200 240.400 C 352.980 240.400,352.800 241.019,352.800 241.776 C 352.800 242.533,352.620 243.264,352.400 243.400 C 352.180 243.536,352.000 244.177,352.000 244.824 C 352.000 245.471,351.820 246.000,351.600 246.000 C 351.380 246.000,351.200 246.540,351.200 247.200 C 351.200 247.860,351.020 248.400,350.800 248.400 C 350.580 248.400,350.400 248.839,350.400 249.376 C 350.400 249.913,350.220 250.464,350.000 250.600 C 349.780 250.736,349.600 251.276,349.600 251.800 C 349.600 252.324,349.420 252.864,349.200 253.000 C 348.980 253.136,348.800 253.687,348.800 254.224 C 348.800 254.761,348.620 255.200,348.400 255.200 C 348.180 255.200,348.000 255.562,348.000 256.005 C 348.000 256.448,347.841 257.123,347.647 257.505 C 347.452 257.887,347.112 258.650,346.890 259.200 C 346.668 259.750,345.917 261.445,345.220 262.967 C 344.523 264.489,343.851 266.247,343.725 266.875 C 343.599 267.503,343.340 268.114,343.148 268.232 C 342.957 268.350,342.800 268.782,342.800 269.190 C 342.800 269.599,342.665 269.993,342.500 270.067 C 342.230 270.187,341.022 272.289,339.840 274.697 C 339.598 275.190,339.265 275.595,339.100 275.597 C 338.935 275.599,338.800 275.960,338.800 276.400 C 338.800 276.840,338.654 277.200,338.475 277.200 C 338.296 277.200,337.902 277.830,337.600 278.600 C 337.298 279.370,336.904 280.000,336.725 280.000 C 336.546 280.000,336.400 280.270,336.400 280.600 C 336.400 280.930,336.220 281.200,336.000 281.200 C 335.780 281.200,335.600 281.470,335.600 281.800 C 335.600 282.130,335.420 282.400,335.200 282.400 C 334.980 282.400,334.800 282.760,334.800 283.200 C 334.800 283.640,334.650 284.000,334.468 284.000 C 334.285 284.000,333.880 284.495,333.568 285.100 C 333.255 285.705,332.685 286.549,332.300 286.975 C 331.915 287.402,331.600 287.987,331.600 288.275 C 331.600 288.564,331.450 288.800,331.268 288.800 C 331.085 288.800,330.680 289.295,330.368 289.900 C 330.056 290.505,329.710 291.090,329.598 291.200 C 329.116 291.675,327.200 294.367,327.200 294.569 C 327.200 294.818,326.412 295.795,324.500 297.915 C 323.785 298.708,323.200 299.497,323.200 299.669 C 323.200 299.841,322.210 301.004,321.000 302.253 C 319.790 303.502,318.800 304.672,318.800 304.853 C 318.800 305.337,306.035 318.050,304.400 319.195 C 303.630 319.733,302.339 320.855,301.531 321.687 C 300.724 322.519,299.869 323.200,299.631 323.200 C 299.394 323.200,299.200 323.380,299.200 323.600 C 299.200 323.820,299.002 324.000,298.760 324.000 C 298.519 324.000,297.817 324.540,297.200 325.200 C 296.583 325.860,295.964 326.400,295.823 326.400 C 295.682 326.400,295.349 326.583,295.083 326.807 C 293.286 328.323,292.644 328.800,292.401 328.800 C 292.249 328.800,291.601 329.250,290.962 329.800 C 290.323 330.349,289.615 330.799,289.388 330.800 C 289.162 330.800,288.717 331.160,288.400 331.600 C 288.083 332.040,287.586 332.400,287.295 332.400 C 287.004 332.400,286.380 332.760,285.908 333.200 C 285.436 333.640,284.813 334.000,284.525 334.000 C 284.236 334.000,284.000 334.180,284.000 334.400 C 284.000 334.620,283.764 334.800,283.475 334.800 C 283.187 334.800,282.602 335.125,282.175 335.522 C 281.749 335.920,280.815 336.503,280.100 336.820 C 279.385 337.136,278.800 337.531,278.800 337.698 C 278.800 337.864,278.564 338.000,278.275 338.000 C 277.987 338.000,277.364 338.360,276.892 338.800 C 276.420 339.240,275.756 339.600,275.417 339.600 C 275.078 339.600,274.800 339.780,274.800 340.000 C 274.800 340.220,274.440 340.400,274.000 340.400 C 273.560 340.400,273.200 340.580,273.200 340.800 C 273.200 341.020,272.840 341.200,272.400 341.200 C 271.960 341.200,271.600 341.380,271.600 341.600 C 271.600 341.820,271.240 342.000,270.800 342.000 C 270.360 342.000,270.000 342.180,270.000 342.400 C 270.000 342.620,269.640 342.800,269.200 342.800 C 268.760 342.800,268.400 342.980,268.400 343.200 C 268.400 343.420,268.113 343.600,267.762 343.600 C 267.410 343.600,265.796 344.230,264.173 345.000 C 262.550 345.770,260.948 346.400,260.611 346.400 C 260.275 346.400,260.000 346.547,260.000 346.728 C 260.000 346.908,259.100 347.300,258.000 347.600 C 256.900 347.900,256.000 348.292,256.000 348.472 C 256.000 348.653,255.561 348.800,255.024 348.800 C 254.487 348.800,253.936 348.980,253.800 349.200 C 253.664 349.420,253.124 349.600,252.600 349.600 C 252.076 349.600,251.536 349.780,251.400 350.000 C 251.264 350.220,250.713 350.400,250.176 350.400 C 249.639 350.400,249.200 350.580,249.200 350.800 C 249.200 351.020,248.761 351.200,248.224 351.200 C 247.687 351.200,247.136 351.380,247.000 351.600 C 246.864 351.820,246.223 352.000,245.576 352.000 C 244.929 352.000,244.400 352.180,244.400 352.400 C 244.400 352.620,243.781 352.800,243.024 352.800 C 242.267 352.800,241.536 352.980,241.400 353.200 C 241.264 353.420,240.623 353.600,239.976 353.600 C 239.329 353.600,238.800 353.780,238.800 354.000 C 238.800 354.220,237.990 354.400,237.000 354.400 C 236.010 354.400,235.200 354.580,235.200 354.800 C 235.200 355.020,234.491 355.200,233.624 355.200 C 232.757 355.200,231.936 355.380,231.800 355.600 C 231.664 355.820,230.674 356.000,229.600 356.000 C 228.526 356.000,227.536 356.180,227.400 356.400 C 227.264 356.620,226.263 356.800,225.176 356.800 C 224.089 356.800,223.200 356.980,223.200 357.200 C 223.200 357.433,221.867 357.600,220.000 357.600 C 218.133 357.600,216.800 357.767,216.800 358.000 C 216.800 358.246,214.808 358.400,211.624 358.400 C 208.604 358.400,206.344 358.567,206.200 358.800 C 206.052 359.040,203.396 359.200,199.576 359.200 C 195.592 359.200,193.200 359.050,193.200 358.800 C 193.200 358.555,191.275 358.400,188.224 358.400 C 185.337 358.400,183.143 358.232,183.000 358.000 C 182.864 357.780,181.413 357.600,179.776 357.600 C 178.059 357.600,176.800 357.431,176.800 357.200 C 176.800 356.980,175.821 356.800,174.624 356.800 C 173.427 356.800,172.336 356.620,172.200 356.400 C 172.064 356.180,171.074 356.000,170.000 356.000 C 168.926 356.000,167.936 355.820,167.800 355.600 C 167.664 355.380,166.843 355.200,165.976 355.200 C 165.109 355.200,164.400 355.020,164.400 354.800 C 164.400 354.580,163.680 354.400,162.800 354.400 C 161.920 354.400,161.200 354.220,161.200 354.000 C 161.200 353.780,160.581 353.600,159.824 353.600 C 159.067 353.600,158.336 353.420,158.200 353.200 C 158.064 352.980,157.434 352.800,156.800 352.800 C 156.166 352.800,155.536 352.620,155.400 352.400 C 155.264 352.180,154.623 352.000,153.976 352.000 C 153.329 352.000,152.800 351.820,152.800 351.600 C 152.800 351.380,152.260 351.200,151.600 351.200 C 150.940 351.200,150.400 351.020,150.400 350.800 C 150.400 350.580,149.860 350.400,149.200 350.400 C 148.540 350.400,148.000 350.220,148.000 350.000 C 148.000 349.780,147.460 349.600,146.800 349.600 C 146.140 349.600,145.600 349.420,145.600 349.200 C 145.600 348.980,145.251 348.800,144.824 348.800 C 144.397 348.800,143.936 348.620,143.800 348.400 C 143.664 348.180,143.113 348.000,142.576 348.000 C 142.039 348.000,141.600 347.820,141.600 347.600 C 141.600 347.380,141.328 347.200,140.995 347.200 C 140.662 347.200,140.077 347.036,139.695 346.836 C 137.440 345.656,133.289 343.919,132.233 343.714 C 131.555 343.582,130.910 343.368,130.800 343.237 C 130.690 343.107,129.835 342.595,128.900 342.100 C 127.965 341.605,126.435 340.795,125.500 340.300 C 124.565 339.805,123.740 339.265,123.667 339.100 C 123.593 338.935,123.278 338.800,122.967 338.800 C 122.655 338.800,122.400 338.620,122.400 338.400 C 122.400 338.180,122.040 338.000,121.600 338.000 C 121.160 338.000,120.800 337.841,120.800 337.647 C 120.800 337.452,120.485 337.193,120.100 337.071 C 119.191 336.783,117.247 335.588,116.242 334.700 C 115.806 334.315,115.213 334.000,114.925 334.000 C 114.636 334.000,114.400 333.820,114.400 333.600 C 114.400 333.380,114.164 333.200,113.875 333.200 C 113.587 333.200,112.964 332.840,112.492 332.400 C 112.020 331.960,111.491 331.600,111.317 331.600 C 111.143 331.599,110.481 331.152,109.846 330.607 C 109.211 330.061,107.771 329.032,106.646 328.321 C 105.521 327.609,104.309 326.706,103.953 326.314 C 103.597 325.921,103.102 325.600,102.853 325.600 C 102.604 325.600,102.400 325.420,102.400 325.200 C 102.400 324.980,102.220 324.800,102.000 324.800 C 101.781 324.800,100.859 324.080,99.952 323.200 C 99.045 322.320,98.156 321.600,97.976 321.600 C 97.117 321.600,78.400 302.885,78.400 302.026 C 78.400 301.845,77.680 300.955,76.800 300.048 C 75.920 299.141,75.200 298.252,75.200 298.072 C 75.200 297.891,74.570 297.008,73.800 296.108 C 73.030 295.209,72.400 294.316,72.400 294.125 C 72.400 293.933,72.040 293.517,71.600 293.200 C 71.160 292.883,70.800 292.438,70.799 292.212 C 70.799 291.985,70.259 291.170,69.600 290.400 C 68.941 289.630,68.401 288.857,68.401 288.683 C 68.400 288.509,68.040 287.980,67.600 287.508 C 67.160 287.036,66.800 286.413,66.800 286.125 C 66.800 285.836,66.620 285.600,66.400 285.600 C 66.180 285.600,66.000 285.364,66.000 285.075 C 66.000 284.787,65.685 284.194,65.300 283.758 C 64.412 282.753,63.217 280.809,62.929 279.900 C 62.807 279.515,62.581 279.200,62.428 279.200 C 62.275 279.200,61.902 278.570,61.600 277.800 C 61.298 277.030,60.904 276.400,60.725 276.400 C 60.546 276.400,60.400 276.203,60.400 275.962 C 60.400 275.721,60.039 275.016,59.597 274.395 C 59.155 273.775,58.682 272.712,58.547 272.034 C 58.411 271.355,58.186 270.800,58.048 270.800 C 57.909 270.800,57.544 270.215,57.236 269.500 C 55.013 264.332,53.677 261.321,53.156 260.305 C 52.960 259.923,52.800 259.338,52.800 259.005 C 52.800 258.672,52.620 258.400,52.400 258.400 C 52.180 258.400,52.000 257.961,52.000 257.424 C 52.000 256.887,51.820 256.336,51.600 256.200 C 51.380 256.064,51.200 255.603,51.200 255.176 C 51.200 254.749,51.020 254.400,50.800 254.400 C 50.580 254.400,50.400 253.860,50.400 253.200 C 50.400 252.540,50.220 252.000,50.000 252.000 C 49.780 252.000,49.600 251.460,49.600 250.800 C 49.600 250.140,49.420 249.600,49.200 249.600 C 48.980 249.600,48.800 249.161,48.800 248.624 C 48.800 248.087,48.620 247.536,48.400 247.400 C 48.180 247.264,48.000 246.634,48.000 246.000 C 48.000 245.366,47.820 244.736,47.600 244.600 C 47.380 244.464,47.200 243.823,47.200 243.176 C 47.200 242.529,47.020 242.000,46.800 242.000 C 46.580 242.000,46.400 241.381,46.400 240.624 C 46.400 239.867,46.220 239.136,46.000 239.000 C 45.780 238.864,45.600 238.043,45.600 237.176 C 45.600 236.309,45.420 235.600,45.200 235.600 C 44.980 235.600,44.800 234.880,44.800 234.000 C 44.800 233.120,44.620 232.400,44.400 232.400 C 44.180 232.400,44.000 231.410,44.000 230.200 C 44.000 228.990,43.820 228.000,43.600 228.000 C 43.380 228.000,43.200 227.021,43.200 225.824 C 43.200 224.627,43.020 223.536,42.800 223.400 C 42.580 223.264,42.400 221.828,42.400 220.210 C 42.400 218.248,42.237 217.212,41.912 217.104 C 41.203 216.868,41.203 183.532,41.912 183.296 C 42.241 183.186,42.400 182.104,42.400 179.967 C 42.400 178.122,42.567 176.800,42.800 176.800 C 43.020 176.800,43.200 175.810,43.200 174.600 C 43.200 173.390,43.380 172.400,43.600 172.400 C 43.820 172.400,44.000 171.511,44.000 170.424 C 44.000 169.337,44.180 168.336,44.400 168.200 C 44.620 168.064,44.800 167.254,44.800 166.400 C 44.800 165.546,44.980 164.736,45.200 164.600 C 45.420 164.464,45.600 163.643,45.600 162.776 C 45.600 161.909,45.780 161.200,46.000 161.200 C 46.220 161.200,46.400 160.570,46.400 159.800 C 46.400 159.030,46.580 158.400,46.800 158.400 C 47.020 158.400,47.200 157.871,47.200 157.224 C 47.200 156.577,47.380 155.936,47.600 155.800 C 47.820 155.664,48.000 155.034,48.000 154.400 C 48.000 153.766,48.180 153.136,48.400 153.000 C 48.620 152.864,48.800 152.324,48.800 151.800 C 48.800 151.276,48.980 150.736,49.200 150.600 C 49.420 150.464,49.600 150.001,49.600 149.571 C 49.600 149.141,49.780 148.432,50.000 147.995 C 50.220 147.558,50.580 146.842,50.800 146.405 C 51.020 145.968,51.200 145.248,51.200 144.805 C 51.200 144.362,51.347 144.000,51.528 144.000 C 51.708 144.000,52.100 143.100,52.400 142.000 C 52.700 140.900,53.092 140.000,53.272 140.000 C 53.453 140.000,53.600 139.728,53.600 139.395 C 53.600 139.062,53.764 138.477,53.965 138.095 C 55.466 135.234,58.800 127.844,58.800 127.377 C 58.800 127.060,58.980 126.800,59.200 126.800 C 59.420 126.800,59.600 126.440,59.600 126.000 C 59.600 125.560,59.746 125.200,59.925 125.200 C 60.104 125.200,60.498 124.570,60.800 123.800 C 61.102 123.030,61.496 122.400,61.675 122.400 C 61.854 122.400,62.000 122.130,62.000 121.800 C 62.000 121.470,62.180 121.200,62.400 121.200 C 62.620 121.200,62.800 120.930,62.800 120.600 C 62.800 120.270,62.980 120.000,63.200 120.000 C 63.420 120.000,63.600 119.640,63.600 119.200 C 63.600 118.760,63.780 118.400,64.000 118.400 C 64.220 118.400,64.400 118.130,64.400 117.800 C 64.400 117.470,64.580 117.200,64.800 117.200 C 65.020 117.200,65.200 116.930,65.200 116.600 C 65.200 116.270,65.380 116.000,65.600 116.000 C 65.820 116.000,66.000 115.680,66.000 115.288 C 66.000 114.897,66.360 114.317,66.800 114.000 C 67.240 113.683,67.600 113.143,67.600 112.800 C 67.600 112.457,67.960 111.917,68.400 111.600 C 68.840 111.283,69.200 110.827,69.200 110.587 C 69.200 110.347,69.522 109.802,69.915 109.375 C 70.308 108.949,71.464 107.430,72.484 106.000 C 73.505 104.570,74.713 103.003,75.170 102.517 C 75.626 102.031,76.000 101.434,76.000 101.191 C 76.000 100.947,76.900 99.871,78.000 98.800 C 79.100 97.729,80.000 96.660,80.000 96.426 C 80.000 96.192,80.180 96.000,80.400 96.000 C 80.620 96.000,80.800 95.835,80.800 95.633 C 80.800 95.187,95.157 80.800,95.603 80.800 C 95.777 80.800,96.838 79.900,97.961 78.800 C 99.085 77.700,100.183 76.800,100.402 76.800 C 100.621 76.800,100.800 76.620,100.800 76.400 C 100.800 76.180,101.055 76.000,101.367 76.000 C 101.678 76.000,101.993 75.853,102.067 75.673 C 102.140 75.494,103.640 74.280,105.400 72.975 C 107.160 71.671,108.690 70.513,108.800 70.401 C 108.910 70.290,109.495 69.944,110.100 69.632 C 110.705 69.320,111.200 68.915,111.200 68.732 C 111.200 68.550,111.436 68.400,111.725 68.400 C 112.013 68.400,112.598 68.085,113.025 67.700 C 113.451 67.315,114.295 66.745,114.900 66.432 C 115.505 66.120,116.000 65.715,116.000 65.532 C 116.000 65.350,116.278 65.200,116.617 65.200 C 116.956 65.200,117.620 64.840,118.092 64.400 C 118.564 63.960,119.187 63.600,119.475 63.600 C 119.764 63.600,120.000 63.420,120.000 63.200 C 120.000 62.980,120.360 62.800,120.800 62.800 C 121.240 62.800,121.600 62.620,121.600 62.400 C 121.600 62.180,121.870 62.000,122.200 62.000 C 122.530 62.000,122.800 61.820,122.800 61.600 C 122.800 61.380,123.036 61.200,123.325 61.200 C 123.613 61.200,124.236 60.840,124.708 60.400 C 125.180 59.960,125.844 59.600,126.183 59.600 C 126.522 59.600,126.800 59.420,126.800 59.200 C 126.800 58.980,127.115 58.799,127.500 58.799 C 127.885 58.798,129.450 58.168,130.977 57.399 C 132.504 56.629,133.911 56.000,134.102 56.000 C 134.422 56.000,138.867 54.031,140.495 53.168 C 140.877 52.966,141.462 52.800,141.795 52.800 C 142.128 52.800,142.400 52.620,142.400 52.400 C 142.400 52.180,142.940 52.000,143.600 52.000 C 144.260 52.000,144.800 51.820,144.800 51.600 C 144.800 51.380,145.149 51.200,145.576 51.200 C 146.003 51.200,146.464 51.020,146.600 50.800 C 146.736 50.580,147.276 50.400,147.800 50.400 C 148.324 50.400,148.864 50.220,149.000 50.000 C 149.136 49.780,149.676 49.600,150.200 49.600 C 150.724 49.600,151.264 49.420,151.400 49.200 C 151.536 48.980,152.076 48.800,152.600 48.800 C 153.124 48.800,153.664 48.620,153.800 48.400 C 153.936 48.180,154.566 48.000,155.200 48.000 C 155.834 48.000,156.464 47.820,156.600 47.600 C 156.736 47.380,157.366 47.200,158.000 47.200 C 158.634 47.200,159.264 47.020,159.400 46.800 C 159.536 46.580,160.256 46.400,161.000 46.400 C 161.744 46.400,162.464 46.220,162.600 46.000 C 162.736 45.780,163.557 45.600,164.424 45.600 C 165.291 45.600,166.000 45.420,166.000 45.200 C 166.000 44.980,166.799 44.800,167.776 44.800 C 168.753 44.800,169.664 44.620,169.800 44.400 C 169.936 44.180,170.836 44.000,171.800 44.000 C 172.764 44.000,173.664 43.820,173.800 43.600 C 173.936 43.380,175.207 43.200,176.624 43.200 C 178.075 43.200,179.200 43.025,179.200 42.800 C 179.200 42.563,180.659 42.400,182.776 42.400 C 184.743 42.400,186.464 42.220,186.600 42.000 C 186.757 41.746,191.671 41.600,200.024 41.600 C 208.541 41.600,213.200 41.741,213.200 42.000 " stroke="none" fill="#5282b0" fill-rule="evenodd"></path><path id="path1" d="M78.590 162.800 C 78.590 178.970,78.639 185.585,78.700 177.500 C 78.760 169.415,78.760 156.185,78.700 148.100 C 78.639 140.015,78.590 146.630,78.590 162.800 M132.983 300.427 C 132.838 300.662,132.422 300.742,132.060 300.604 C 131.556 300.412,131.510 300.464,131.866 300.823 C 132.223 301.182,132.549 301.141,133.255 300.646 C 133.763 300.291,133.969 300.000,133.713 300.000 C 133.457 300.000,133.128 300.192,132.983 300.427 " stroke="none" fill="#ff0000" fill-rule="evenodd"></path><path id="path2" d="M195.400 62.909 C 194.520 63.399,193.710 63.890,193.600 64.000 C 193.204 64.396,190.985 65.654,190.300 65.871 C 189.915 65.993,189.600 66.252,189.600 66.447 C 189.600 66.641,189.240 66.800,188.800 66.800 C 188.360 66.800,188.000 66.980,188.000 67.200 C 188.000 67.420,187.764 67.600,187.475 67.600 C 187.187 67.600,186.564 67.960,186.092 68.400 C 185.620 68.840,184.956 69.200,184.617 69.200 C 184.278 69.200,184.000 69.380,184.000 69.600 C 184.000 69.820,183.640 70.000,183.200 70.000 C 182.760 70.000,182.400 70.180,182.400 70.400 C 182.400 70.620,182.207 70.800,181.972 70.800 C 181.737 70.800,180.759 71.340,179.800 72.000 C 178.841 72.660,177.863 73.200,177.628 73.200 C 177.393 73.200,177.200 73.380,177.200 73.600 C 177.200 73.820,176.964 74.000,176.675 74.000 C 176.387 74.000,175.764 74.360,175.292 74.800 C 174.820 75.240,174.156 75.600,173.817 75.600 C 173.478 75.600,173.200 75.780,173.200 76.000 C 173.200 76.220,172.855 76.400,172.433 76.400 C 172.012 76.400,171.607 76.535,171.533 76.700 C 171.460 76.865,170.680 77.351,169.800 77.780 C 168.920 78.210,167.474 79.032,166.586 79.609 C 165.698 80.185,164.393 80.913,163.686 81.226 C 162.979 81.539,162.400 81.931,162.400 82.098 C 162.400 82.264,162.164 82.400,161.875 82.400 C 161.587 82.400,160.964 82.760,160.492 83.200 C 160.020 83.640,159.371 84.000,159.050 84.000 C 158.729 84.000,158.407 84.135,158.333 84.300 C 158.166 84.676,156.036 85.975,155.100 86.271 C 154.715 86.393,154.400 86.652,154.400 86.847 C 154.400 87.041,154.040 87.200,153.600 87.200 C 153.160 87.200,152.800 87.380,152.800 87.600 C 152.800 87.820,152.440 88.000,152.000 88.000 C 151.560 88.000,151.200 88.180,151.200 88.400 C 151.200 88.620,150.930 88.800,150.600 88.800 C 150.270 88.800,150.000 88.980,150.000 89.200 C 150.000 89.420,149.730 89.600,149.400 89.600 C 149.070 89.600,148.800 89.780,148.800 90.000 C 148.800 90.220,148.517 90.400,148.171 90.400 C 146.275 90.400,145.919 93.188,147.610 94.800 C 147.725 94.910,148.265 95.855,148.809 96.900 C 149.353 97.945,149.934 98.800,150.099 98.800 C 150.265 98.800,150.400 99.160,150.400 99.600 C 150.400 100.040,150.580 100.400,150.800 100.400 C 151.020 100.400,151.200 100.760,151.200 101.200 C 151.200 101.640,151.380 102.000,151.600 102.000 C 151.820 102.000,152.000 102.270,152.000 102.600 C 152.000 102.930,152.146 103.200,152.325 103.200 C 152.504 103.200,152.898 103.830,153.200 104.600 C 153.502 105.370,153.896 106.000,154.075 106.000 C 154.254 106.000,154.400 106.270,154.400 106.600 C 154.400 106.930,154.580 107.200,154.800 107.200 C 155.020 107.200,155.200 107.520,155.200 107.912 C 155.200 108.303,155.560 108.883,156.000 109.200 C 156.440 109.517,156.800 110.097,156.800 110.488 C 156.800 110.880,156.980 111.200,157.200 111.200 C 157.420 111.200,157.600 111.478,157.600 111.817 C 157.600 112.156,157.960 112.820,158.400 113.292 C 158.840 113.764,159.200 114.387,159.200 114.675 C 159.200 114.964,159.380 115.200,159.600 115.200 C 159.820 115.200,160.000 115.460,160.000 115.777 C 160.000 116.094,161.170 118.355,162.600 120.800 C 164.030 123.245,165.200 125.416,165.200 125.623 C 165.200 125.830,165.380 126.000,165.600 126.000 C 165.820 126.000,166.000 126.278,166.000 126.617 C 166.000 126.956,166.360 127.620,166.800 128.092 C 167.240 128.564,167.600 129.187,167.600 129.475 C 167.600 129.764,167.780 130.000,168.000 130.000 C 168.220 130.000,168.400 130.360,168.400 130.800 C 168.400 131.240,168.580 131.600,168.800 131.600 C 169.020 131.600,169.200 131.878,169.200 132.217 C 169.200 132.556,169.560 133.220,170.000 133.692 C 170.440 134.164,170.800 134.787,170.800 135.075 C 170.800 135.364,170.936 135.600,171.102 135.600 C 171.269 135.600,171.658 136.185,171.968 136.900 C 172.277 137.615,173.041 138.952,173.665 139.872 C 174.289 140.792,174.800 141.737,174.800 141.972 C 174.800 142.207,174.980 142.400,175.200 142.400 C 175.420 142.400,175.600 142.636,175.600 142.925 C 175.600 143.213,175.960 143.836,176.400 144.308 C 176.840 144.780,177.200 145.399,177.201 145.683 C 177.202 145.967,177.798 147.190,178.526 148.400 C 179.254 149.610,180.107 151.185,180.422 151.900 C 180.737 152.615,181.104 153.200,181.238 153.200 C 181.371 153.200,182.088 154.415,182.831 155.900 C 183.574 157.385,184.501 158.891,184.891 159.247 C 185.281 159.603,185.600 160.188,185.600 160.547 C 185.600 160.906,185.780 161.200,186.000 161.200 C 186.220 161.200,186.400 161.560,186.400 162.000 C 186.400 162.440,186.558 162.800,186.751 162.800 C 186.945 162.800,187.327 163.340,187.600 164.000 C 187.873 164.660,188.255 165.200,188.449 165.200 C 188.642 165.200,188.800 165.560,188.800 166.000 C 188.800 166.440,188.946 166.800,189.125 166.800 C 189.304 166.800,189.700 167.436,190.005 168.212 C 190.635 169.819,191.910 170.352,193.448 169.651 C 194.708 169.077,206.000 169.031,206.000 169.600 C 206.000 169.820,206.720 170.000,207.600 170.000 C 208.480 170.000,209.200 170.180,209.200 170.400 C 209.200 170.620,209.639 170.800,210.176 170.800 C 210.713 170.800,211.264 170.980,211.400 171.200 C 212.002 172.173,214.288 171.635,214.800 170.400 C 215.073 169.740,215.455 169.200,215.649 169.200 C 215.842 169.200,216.000 168.840,216.000 168.400 C 216.000 167.960,216.135 167.599,216.300 167.597 C 216.465 167.595,216.798 167.190,217.040 166.697 C 218.007 164.727,219.414 162.189,219.642 162.000 C 219.775 161.890,220.539 160.559,221.340 159.043 C 222.141 157.527,222.958 156.087,223.156 155.843 C 223.853 154.982,225.200 152.369,225.200 151.876 C 225.200 151.601,225.560 151.117,226.000 150.800 C 226.440 150.483,226.800 149.903,226.800 149.512 C 226.800 149.120,226.980 148.800,227.200 148.800 C 227.420 148.800,227.600 148.440,227.600 148.000 C 227.600 147.560,227.752 147.200,227.937 147.200 C 228.123 147.200,228.708 146.345,229.237 145.300 C 229.767 144.255,230.335 143.340,230.500 143.267 C 230.665 143.193,230.800 142.788,230.800 142.367 C 230.800 141.945,230.980 141.600,231.200 141.600 C 231.420 141.600,231.600 141.330,231.600 141.000 C 231.600 140.670,231.780 140.400,232.000 140.400 C 232.220 140.400,232.400 140.130,232.400 139.800 C 232.400 139.470,232.546 139.200,232.725 139.200 C 232.904 139.200,233.298 138.570,233.600 137.800 C 233.902 137.030,234.267 136.400,234.412 136.400 C 234.556 136.400,235.105 135.545,235.632 134.500 C 236.158 133.455,236.755 132.482,236.957 132.338 C 237.724 131.791,236.826 127.200,235.951 127.200 C 235.811 127.200,235.473 126.660,235.200 126.000 C 234.927 125.340,234.545 124.800,234.351 124.800 C 234.158 124.800,234.000 124.440,234.000 124.000 C 234.000 123.560,233.820 123.200,233.600 123.200 C 233.380 123.200,233.200 122.964,233.200 122.675 C 233.200 122.387,232.840 121.764,232.400 121.292 C 231.960 120.820,231.600 120.156,231.600 119.817 C 231.600 119.478,231.441 119.200,231.247 119.200 C 231.052 119.200,230.793 118.885,230.671 118.500 C 230.434 117.753,229.154 115.533,228.768 115.200 C 228.640 115.090,228.281 114.415,227.970 113.700 C 227.659 112.985,227.269 112.400,227.102 112.400 C 226.936 112.400,226.800 112.130,226.800 111.800 C 226.800 111.470,226.620 111.200,226.400 111.200 C 226.180 111.200,226.000 110.930,226.000 110.600 C 226.000 110.270,225.820 110.000,225.600 110.000 C 225.380 110.000,225.200 109.721,225.200 109.380 C 225.200 108.715,224.074 106.330,223.604 106.000 C 223.447 105.890,222.718 104.585,221.983 103.100 C 221.248 101.615,220.501 100.400,220.323 100.400 C 220.145 100.400,220.000 100.040,220.000 99.600 C 220.000 99.160,219.853 98.800,219.674 98.800 C 219.495 98.800,218.986 98.125,218.544 97.300 C 217.332 95.039,216.623 93.822,216.390 93.600 C 216.275 93.490,215.735 92.545,215.191 91.500 C 214.647 90.455,214.066 89.600,213.901 89.600 C 213.735 89.600,213.600 89.240,213.600 88.800 C 213.600 88.360,213.420 88.000,213.200 88.000 C 212.980 88.000,212.800 87.722,212.800 87.383 C 212.800 87.044,212.440 86.380,212.000 85.908 C 211.560 85.436,211.200 84.813,211.200 84.525 C 211.200 84.236,211.064 84.000,210.898 84.000 C 210.731 84.000,210.341 83.415,210.030 82.700 C 209.719 81.985,209.360 81.310,209.232 81.200 C 209.104 81.090,208.280 79.605,207.401 77.900 C 206.521 76.195,205.666 74.800,205.501 74.800 C 205.335 74.800,205.200 74.455,205.200 74.033 C 205.200 73.612,205.065 73.207,204.900 73.133 C 204.524 72.966,203.225 70.836,202.929 69.900 C 202.807 69.515,202.548 69.200,202.353 69.200 C 202.159 69.200,202.000 68.840,202.000 68.400 C 202.000 67.960,201.820 67.600,201.600 67.600 C 201.380 67.600,201.200 67.364,201.200 67.075 C 201.200 66.787,200.840 66.164,200.400 65.692 C 199.960 65.220,199.600 64.556,199.600 64.217 C 199.600 63.878,199.420 63.600,199.200 63.600 C 198.980 63.600,198.800 63.349,198.800 63.043 C 198.800 62.543,197.972 61.985,197.267 62.009 C 197.120 62.014,196.280 62.419,195.400 62.909 M265.864 100.300 C 265.738 100.685,264.823 102.440,263.832 104.200 C 262.840 105.960,261.488 108.390,260.826 109.600 C 258.991 112.955,258.229 114.187,257.900 114.333 C 257.735 114.407,257.600 114.812,257.600 115.233 C 257.600 115.655,257.420 116.000,257.200 116.000 C 256.980 116.000,256.800 116.270,256.800 116.600 C 256.800 116.930,256.654 117.200,256.475 117.200 C 256.296 117.200,255.902 117.830,255.600 118.600 C 255.298 119.370,254.904 120.000,254.725 120.000 C 254.546 120.000,254.400 120.236,254.400 120.525 C 254.400 120.813,254.040 121.436,253.600 121.908 C 253.160 122.380,252.800 123.044,252.800 123.383 C 252.800 123.722,252.620 124.000,252.400 124.000 C 252.180 124.000,252.000 124.360,252.000 124.800 C 252.000 125.240,251.820 125.600,251.600 125.600 C 251.380 125.600,251.200 125.870,251.200 126.200 C 251.200 126.530,251.041 126.800,250.847 126.800 C 250.652 126.800,250.393 127.115,250.271 127.500 C 250.048 128.204,248.781 130.427,248.390 130.800 C 248.275 130.910,247.570 132.170,246.824 133.600 C 246.077 135.030,245.362 136.290,245.233 136.400 C 244.731 136.831,243.600 139.158,243.600 139.762 C 243.600 140.113,243.420 140.400,243.200 140.400 C 242.980 140.400,242.800 140.636,242.800 140.925 C 242.800 141.213,242.440 141.836,242.000 142.308 C 241.560 142.780,241.200 143.444,241.200 143.783 C 241.200 144.122,241.020 144.400,240.800 144.400 C 240.580 144.400,240.400 144.670,240.400 145.000 C 240.400 145.330,240.220 145.600,240.000 145.600 C 239.780 145.600,239.600 145.870,239.600 146.200 C 239.600 146.530,239.420 146.800,239.200 146.800 C 238.980 146.800,238.800 147.070,238.800 147.400 C 238.800 147.730,238.620 148.000,238.400 148.000 C 238.180 148.000,238.000 148.272,238.000 148.605 C 238.000 149.161,237.278 150.722,236.800 151.200 C 236.690 151.310,236.375 151.805,236.100 152.300 C 235.825 152.795,235.375 153.605,235.100 154.100 C 234.825 154.595,234.506 155.090,234.390 155.200 C 234.275 155.310,233.735 156.255,233.191 157.300 C 232.647 158.345,232.066 159.200,231.901 159.200 C 231.735 159.200,231.600 159.545,231.600 159.967 C 231.600 160.388,231.465 160.793,231.300 160.867 C 230.822 161.079,229.485 163.202,228.193 165.800 C 227.537 167.120,226.865 168.260,226.700 168.333 C 226.535 168.407,226.400 168.812,226.400 169.233 C 226.400 169.655,226.220 170.000,226.000 170.000 C 225.780 170.000,225.600 170.320,225.600 170.712 C 225.600 171.103,225.240 171.683,224.800 172.000 C 224.360 172.317,224.000 172.897,224.000 173.288 C 224.000 173.680,223.820 174.000,223.600 174.000 C 223.380 174.000,223.200 174.360,223.200 174.800 C 223.200 175.240,223.020 175.600,222.800 175.600 C 222.580 175.600,222.400 175.870,222.400 176.200 C 222.400 176.530,222.220 176.800,222.000 176.800 C 221.154 176.800,221.665 177.970,223.200 179.552 C 224.080 180.459,224.800 181.381,224.800 181.600 C 224.800 181.820,224.980 182.000,225.200 182.000 C 225.420 182.000,225.600 182.270,225.600 182.600 C 225.600 182.930,225.780 183.200,226.000 183.200 C 226.220 183.200,226.400 183.455,226.400 183.767 C 226.400 184.078,226.545 184.393,226.722 184.467 C 227.081 184.616,228.896 188.938,229.632 191.400 C 229.896 192.280,230.261 193.360,230.445 193.800 C 230.628 194.240,230.828 195.320,230.889 196.200 L 231.000 197.800 254.925 197.903 C 280.081 198.012,280.000 198.017,280.000 196.317 C 280.000 196.020,280.360 195.517,280.800 195.200 C 281.240 194.883,281.600 194.303,281.600 193.912 C 281.600 193.520,281.780 193.200,282.000 193.200 C 282.220 193.200,282.400 192.840,282.400 192.400 C 282.400 191.960,282.535 191.599,282.700 191.597 C 283.005 191.595,284.063 189.977,285.183 187.800 C 286.331 185.569,288.168 182.601,288.485 182.467 C 288.658 182.393,288.800 181.988,288.800 181.567 C 288.800 181.145,288.980 180.800,289.200 180.800 C 289.420 180.800,289.600 180.603,289.600 180.362 C 289.600 180.121,289.948 179.435,290.373 178.837 C 290.799 178.240,291.264 177.285,291.407 176.715 C 291.550 176.145,292.012 175.309,292.433 174.856 C 292.855 174.404,293.200 173.756,293.200 173.417 C 293.200 173.078,293.380 172.800,293.600 172.800 C 293.820 172.800,294.000 172.530,294.000 172.200 C 294.000 171.870,294.180 171.600,294.400 171.600 C 294.620 171.600,294.800 171.330,294.800 171.000 C 294.800 170.670,294.946 170.400,295.125 170.400 C 295.304 170.400,295.698 169.770,296.000 169.000 C 296.302 168.230,296.696 167.600,296.875 167.600 C 297.054 167.600,297.200 167.240,297.200 166.800 C 297.200 166.360,297.359 166.000,297.553 166.000 C 297.748 166.000,298.007 165.685,298.129 165.300 C 298.346 164.613,299.605 162.394,300.001 162.000 C 300.111 161.890,300.456 161.305,300.768 160.700 C 301.080 160.095,301.485 159.600,301.668 159.600 C 301.850 159.600,302.000 159.240,302.000 158.800 C 302.000 158.360,302.180 158.000,302.400 158.000 C 302.620 158.000,302.800 157.640,302.800 157.200 C 302.800 156.760,302.980 156.400,303.200 156.400 C 303.420 156.400,303.600 156.130,303.600 155.800 C 303.600 155.470,303.735 155.199,303.900 155.197 C 304.065 155.195,304.398 154.790,304.640 154.297 C 305.613 152.315,307.014 149.788,307.244 149.600 C 307.633 149.282,308.800 146.883,308.800 146.403 C 308.800 146.163,309.160 145.580,309.600 145.108 C 310.040 144.636,310.400 144.013,310.400 143.725 C 310.400 143.436,310.580 143.200,310.800 143.200 C 311.020 143.200,311.200 142.855,311.200 142.433 C 311.200 142.012,311.335 141.607,311.500 141.533 C 311.955 141.331,313.600 138.890,313.600 138.416 C 313.600 138.187,313.780 138.000,314.000 138.000 C 314.220 138.000,314.400 137.640,314.400 137.200 C 314.400 136.760,314.580 136.400,314.800 136.400 C 315.020 136.400,315.200 136.122,315.200 135.783 C 315.200 135.444,315.560 134.780,316.000 134.308 C 316.440 133.836,316.800 133.213,316.800 132.925 C 316.800 132.636,316.980 132.400,317.200 132.400 C 317.420 132.400,317.600 132.040,317.600 131.600 C 317.600 131.160,317.780 130.800,318.000 130.800 C 318.220 130.800,318.398 130.395,318.395 129.900 C 318.390 128.965,316.175 127.200,315.006 127.200 C 314.673 127.200,314.400 127.020,314.400 126.800 C 314.400 126.580,314.122 126.400,313.783 126.400 C 313.444 126.400,312.780 126.040,312.308 125.600 C 311.836 125.160,311.213 124.800,310.925 124.800 C 310.636 124.800,310.400 124.620,310.400 124.400 C 310.400 124.180,310.040 124.000,309.600 124.000 C 309.160 124.000,308.800 123.820,308.800 123.600 C 308.800 123.380,308.530 123.200,308.200 123.200 C 307.870 123.200,307.600 123.020,307.600 122.800 C 307.600 122.580,307.330 122.400,307.000 122.400 C 306.670 122.400,306.400 122.220,306.400 122.000 C 306.400 121.780,306.130 121.600,305.800 121.600 C 305.470 121.600,305.200 121.420,305.200 121.200 C 305.200 120.980,304.840 120.800,304.400 120.800 C 303.960 120.800,303.600 120.641,303.600 120.447 C 303.600 120.252,303.285 119.993,302.900 119.871 C 301.964 119.575,299.834 118.276,299.667 117.900 C 299.593 117.735,299.188 117.600,298.767 117.600 C 298.345 117.600,298.000 117.420,298.000 117.200 C 298.000 116.980,297.730 116.800,297.400 116.800 C 297.070 116.800,296.800 116.664,296.800 116.498 C 296.800 116.331,296.215 115.941,295.500 115.630 C 294.785 115.319,294.110 114.958,294.000 114.829 C 293.890 114.700,292.810 114.071,291.600 113.432 C 290.390 112.792,288.648 111.759,287.728 111.135 C 286.808 110.511,285.773 110.000,285.428 110.000 C 285.083 110.000,284.800 109.820,284.800 109.600 C 284.800 109.380,284.440 109.200,284.000 109.200 C 283.560 109.200,283.200 109.020,283.200 108.800 C 283.200 108.580,282.964 108.400,282.675 108.400 C 282.387 108.400,281.764 108.040,281.292 107.600 C 280.820 107.160,280.156 106.800,279.817 106.800 C 279.478 106.800,279.200 106.620,279.200 106.400 C 279.200 106.180,278.880 106.000,278.488 106.000 C 278.097 106.000,277.517 105.640,277.200 105.200 C 276.883 104.760,276.303 104.400,275.912 104.400 C 275.520 104.400,275.200 104.220,275.200 104.000 C 275.200 103.780,274.840 103.600,274.400 103.600 C 273.960 103.600,273.600 103.448,273.600 103.263 C 273.600 103.077,272.790 102.509,271.800 102.000 C 270.810 101.491,270.000 100.923,270.000 100.737 C 270.000 100.552,269.640 100.400,269.200 100.400 C 268.760 100.400,268.400 100.220,268.400 100.000 C 268.400 99.277,266.110 99.548,265.864 100.300 M79.280 132.880 C 78.915 133.245,78.800 140.454,78.800 162.882 L 78.800 192.403 124.295 192.302 C 169.441 192.201,169.790 192.194,169.915 191.400 C 170.164 189.821,173.402 183.163,174.488 181.998 C 174.880 181.577,175.200 181.042,175.200 180.808 C 175.200 180.232,179.464 176.000,180.045 176.000 C 180.299 176.000,180.916 175.524,181.415 174.943 L 182.324 173.886 181.344 172.243 C 180.806 171.339,180.262 170.285,180.136 169.900 C 180.010 169.515,179.748 169.200,179.553 169.200 C 179.359 169.200,179.200 168.840,179.200 168.400 C 179.200 167.960,179.020 167.600,178.800 167.600 C 178.580 167.600,178.400 167.330,178.400 167.000 C 178.400 166.670,178.264 166.400,178.098 166.400 C 177.931 166.400,177.541 165.815,177.230 165.100 C 176.919 164.385,176.560 163.710,176.432 163.600 C 176.165 163.369,175.056 161.386,172.966 157.400 C 172.159 155.860,171.386 154.510,171.249 154.400 C 171.112 154.290,170.563 153.390,170.030 152.400 C 169.496 151.410,168.956 150.510,168.829 150.400 C 168.702 150.290,168.335 149.660,168.012 149.000 C 167.689 148.340,166.924 147.048,166.312 146.128 C 165.701 145.208,165.200 144.263,165.200 144.028 C 165.200 143.793,165.020 143.600,164.800 143.600 C 164.580 143.600,164.400 143.240,164.400 142.800 C 164.400 142.360,164.220 142.000,164.000 142.000 C 163.780 142.000,163.600 141.680,163.600 141.288 C 163.600 140.897,163.240 140.317,162.800 140.000 C 162.360 139.683,162.000 139.103,162.000 138.712 C 162.000 138.320,161.865 137.997,161.700 137.994 C 161.535 137.990,160.960 137.090,160.421 135.994 C 159.883 134.897,159.319 134.000,159.168 134.000 C 159.017 134.000,158.799 133.640,158.684 133.200 C 158.427 132.219,80.256 131.904,79.280 132.880 M119.740 203.500 C 119.356 204.325,118.942 205.090,118.820 205.200 C 118.698 205.310,118.344 205.895,118.032 206.500 C 117.720 207.105,117.315 207.600,117.132 207.600 C 116.950 207.600,116.800 207.960,116.800 208.400 C 116.800 208.840,116.620 209.200,116.400 209.200 C 116.180 209.200,116.000 209.560,116.000 210.000 C 116.000 210.440,115.853 210.800,115.674 210.800 C 115.495 210.800,114.983 211.475,114.536 212.300 C 114.089 213.125,113.357 214.430,112.910 215.200 C 112.463 215.970,111.627 217.410,111.053 218.400 C 110.479 219.390,110.007 220.433,110.005 220.717 C 110.002 221.001,109.640 221.620,109.200 222.092 C 108.760 222.564,108.400 223.187,108.400 223.475 C 108.400 223.764,108.220 224.000,108.000 224.000 C 107.780 224.000,107.600 224.360,107.600 224.800 C 107.600 225.240,107.420 225.600,107.200 225.600 C 106.980 225.600,106.800 225.870,106.800 226.200 C 106.800 226.530,106.620 226.800,106.400 226.800 C 106.180 226.800,106.000 227.070,106.000 227.400 C 106.000 227.730,105.820 228.000,105.600 228.000 C 105.380 228.000,105.200 228.270,105.200 228.600 C 105.200 228.930,105.020 229.200,104.800 229.200 C 104.580 229.200,104.400 229.526,104.400 229.925 C 104.400 230.323,104.040 231.036,103.600 231.508 C 103.160 231.980,102.800 232.554,102.800 232.783 C 102.800 233.012,102.620 233.200,102.400 233.200 C 102.180 233.200,102.000 233.434,102.000 233.720 C 102.000 234.456,101.059 236.393,100.700 236.397 C 100.535 236.399,100.400 236.670,100.400 237.000 C 100.400 237.330,100.220 237.600,100.000 237.600 C 99.780 237.600,99.600 237.870,99.600 238.200 C 99.600 238.530,99.420 238.800,99.200 238.800 C 98.980 238.800,98.800 239.160,98.800 239.600 C 98.800 240.040,98.665 240.401,98.500 240.403 C 98.335 240.405,97.997 240.810,97.749 241.303 C 97.500 241.796,96.895 243.010,96.404 244.000 C 95.912 244.990,95.080 246.373,94.555 247.073 C 94.030 247.774,93.600 248.629,93.600 248.973 C 93.600 249.318,93.420 249.600,93.200 249.600 C 92.980 249.600,92.800 249.960,92.800 250.400 C 92.800 250.840,92.620 251.200,92.400 251.200 C 92.180 251.200,92.000 251.470,92.000 251.800 C 92.000 252.130,91.820 252.400,91.600 252.400 C 91.380 252.400,91.200 252.670,91.200 253.000 C 91.200 253.330,91.020 253.600,90.800 253.600 C 90.580 253.600,90.400 253.960,90.400 254.400 C 90.400 254.840,90.220 255.200,90.000 255.200 C 89.780 255.200,89.600 255.478,89.600 255.817 C 89.600 256.156,89.240 256.820,88.800 257.292 C 88.360 257.764,88.000 258.387,88.000 258.675 C 88.000 258.964,87.820 259.200,87.600 259.200 C 87.380 259.200,87.200 259.560,87.200 260.000 C 87.200 260.440,87.020 260.800,86.800 260.800 C 86.580 260.800,86.400 261.070,86.400 261.400 C 86.400 261.730,86.242 262.000,86.049 262.000 C 85.855 262.000,85.473 262.540,85.200 263.200 C 84.927 263.860,84.545 264.400,84.351 264.400 C 84.158 264.400,84.000 264.760,84.000 265.200 C 84.000 265.640,83.841 266.000,83.647 266.000 C 83.452 266.000,83.190 266.315,83.064 266.700 C 82.938 267.085,82.367 268.187,81.796 269.150 C 80.612 271.143,80.790 271.517,83.600 272.931 C 84.370 273.319,85.540 273.974,86.200 274.389 C 86.860 274.803,87.715 275.155,88.100 275.171 C 88.485 275.187,88.800 275.380,88.800 275.600 C 88.800 275.820,89.078 276.000,89.417 276.000 C 89.756 276.000,90.420 276.360,90.892 276.800 C 91.364 277.240,91.987 277.600,92.275 277.600 C 92.564 277.600,92.800 277.780,92.800 278.000 C 92.800 278.220,93.070 278.400,93.400 278.400 C 93.730 278.400,94.000 278.580,94.000 278.800 C 94.000 279.020,94.360 279.200,94.800 279.200 C 95.240 279.200,95.600 279.352,95.600 279.537 C 95.600 279.723,96.455 280.306,97.500 280.835 C 98.545 281.363,99.626 282.010,99.902 282.272 C 100.179 282.533,100.764 282.862,101.202 283.001 C 101.641 283.140,102.000 283.422,102.000 283.627 C 102.000 283.832,102.360 284.000,102.800 284.000 C 103.240 284.000,103.600 284.180,103.600 284.400 C 103.600 284.620,103.960 284.800,104.400 284.800 C 104.840 284.800,105.200 284.952,105.200 285.137 C 105.200 285.323,106.055 285.905,107.100 286.432 C 108.145 286.958,109.090 287.482,109.200 287.595 C 109.448 287.849,110.649 288.536,114.000 290.339 C 115.430 291.109,116.660 291.887,116.733 292.069 C 116.807 292.251,117.212 292.400,117.633 292.400 C 118.055 292.400,118.400 292.580,118.400 292.800 C 118.400 293.020,118.720 293.200,119.112 293.200 C 119.503 293.200,120.083 293.560,120.400 294.000 C 120.717 294.440,121.297 294.800,121.688 294.800 C 122.080 294.800,122.400 294.980,122.400 295.200 C 122.400 295.420,122.760 295.600,123.200 295.600 C 123.640 295.600,124.000 295.759,124.000 295.954 C 124.000 296.149,124.585 296.601,125.300 296.958 C 126.015 297.315,127.500 298.149,128.600 298.811 C 132.524 301.173,133.407 301.131,134.426 298.534 C 134.714 297.800,135.074 297.200,135.226 297.200 C 135.378 297.200,135.727 296.660,136.000 296.000 C 136.273 295.340,136.655 294.800,136.849 294.800 C 137.042 294.800,137.200 294.528,137.200 294.195 C 137.200 293.561,137.992 291.956,138.489 291.583 C 138.875 291.293,140.684 288.080,141.237 286.700 C 141.480 286.095,141.841 285.600,142.039 285.600 C 142.238 285.600,142.400 285.240,142.400 284.800 C 142.400 284.360,142.580 284.000,142.800 284.000 C 143.020 284.000,143.200 283.640,143.200 283.200 C 143.200 282.760,143.380 282.400,143.600 282.400 C 143.820 282.400,144.000 282.130,144.000 281.800 C 144.000 281.470,144.146 281.200,144.325 281.200 C 144.504 281.200,144.898 280.570,145.200 279.800 C 145.502 279.030,145.896 278.400,146.075 278.400 C 146.254 278.400,146.400 278.040,146.400 277.600 C 146.400 277.160,146.580 276.800,146.800 276.800 C 147.020 276.800,147.200 276.564,147.200 276.275 C 147.200 275.987,147.560 275.364,148.000 274.892 C 148.440 274.420,148.800 273.756,148.800 273.417 C 148.800 273.078,148.980 272.800,149.200 272.800 C 149.420 272.800,149.600 272.564,149.600 272.275 C 149.600 271.987,149.915 271.402,150.300 270.975 C 150.685 270.549,151.264 269.660,151.588 269.000 C 151.911 268.340,152.676 267.048,153.288 266.128 C 153.899 265.208,154.400 264.263,154.400 264.028 C 154.400 263.793,154.580 263.600,154.800 263.600 C 155.020 263.600,155.200 263.240,155.200 262.800 C 155.200 262.360,155.380 262.000,155.600 262.000 C 155.820 262.000,156.000 261.699,156.000 261.331 C 156.000 260.964,156.244 260.379,156.543 260.031 C 156.842 259.684,157.695 258.230,158.440 256.800 C 159.184 255.370,159.930 254.140,160.097 254.067 C 160.263 253.993,160.400 253.678,160.400 253.367 C 160.400 253.055,160.580 252.800,160.800 252.800 C 161.020 252.800,161.200 252.440,161.200 252.000 C 161.200 251.560,161.380 251.200,161.600 251.200 C 161.820 251.200,162.000 250.930,162.000 250.600 C 162.000 250.270,162.180 250.000,162.400 250.000 C 162.620 250.000,162.800 249.730,162.800 249.400 C 162.800 249.070,162.980 248.800,163.200 248.800 C 163.420 248.800,163.600 248.440,163.600 248.000 C 163.600 247.560,163.780 247.200,164.000 247.200 C 164.220 247.200,164.400 246.880,164.400 246.488 C 164.400 246.097,164.760 245.517,165.200 245.200 C 165.640 244.883,166.000 244.303,166.000 243.912 C 166.000 243.520,166.180 243.200,166.400 243.200 C 166.620 243.200,166.800 242.840,166.800 242.400 C 166.800 241.960,166.951 241.600,167.136 241.600 C 167.320 241.600,167.674 241.195,167.921 240.700 C 168.168 240.205,169.007 238.720,169.786 237.400 C 170.565 236.080,171.675 234.100,172.253 233.000 C 172.832 231.900,173.416 230.910,173.552 230.800 C 173.978 230.456,175.200 228.099,175.200 227.622 C 175.200 227.371,175.560 226.780,176.000 226.308 C 176.440 225.836,176.800 225.213,176.800 224.925 C 176.800 224.636,176.980 224.400,177.200 224.400 C 178.095 224.400,177.591 221.913,176.484 220.860 C 175.290 219.726,174.192 218.090,172.688 215.200 C 172.173 214.210,171.537 212.995,171.276 212.500 C 170.152 210.374,170.000 209.960,170.000 209.029 C 170.000 208.489,169.820 207.936,169.600 207.800 C 169.380 207.664,169.200 206.764,169.200 205.800 C 169.200 204.836,169.020 203.936,168.800 203.800 C 168.580 203.664,168.400 203.203,168.400 202.776 C 168.400 202.017,167.890 202.000,144.419 202.000 L 120.438 202.000 119.740 203.500 M230.200 208.400 C 230.060 208.840,229.778 209.200,229.573 209.200 C 229.368 209.200,229.200 209.562,229.200 210.005 C 229.200 210.811,229.089 211.097,227.857 213.462 C 227.496 214.156,227.200 215.011,227.200 215.362 C 227.200 215.713,227.020 216.000,226.800 216.000 C 226.580 216.000,226.400 216.270,226.400 216.600 C 226.400 216.930,226.220 217.200,226.000 217.200 C 225.780 217.200,225.600 217.393,225.600 217.629 C 225.600 217.864,225.375 218.294,225.100 218.584 C 224.175 219.559,223.200 220.807,223.200 221.018 C 223.200 221.417,220.424 224.000,219.995 224.000 C 219.255 224.000,217.600 225.923,217.600 226.782 C 217.600 227.232,217.780 227.600,218.000 227.600 C 218.220 227.600,218.400 227.960,218.400 228.400 C 218.400 228.840,218.580 229.200,218.800 229.200 C 219.020 229.200,219.200 229.520,219.200 229.912 C 219.200 230.303,219.560 230.883,220.000 231.200 C 220.440 231.517,220.800 232.097,220.800 232.488 C 220.800 232.880,220.938 233.200,221.106 233.200 C 221.274 233.200,221.713 233.896,222.082 234.747 C 222.450 235.599,222.989 236.544,223.278 236.847 C 223.568 237.151,224.233 238.247,224.756 239.282 C 225.279 240.318,226.043 241.525,226.454 241.966 C 226.864 242.406,227.201 242.999,227.201 243.283 C 227.202 243.567,227.599 244.430,228.083 245.200 C 228.931 246.550,230.419 249.235,231.351 251.097 C 231.598 251.590,231.935 251.995,232.100 251.997 C 232.265 251.999,232.400 252.360,232.400 252.800 C 232.400 253.240,232.580 253.600,232.800 253.600 C 233.020 253.600,233.200 253.870,233.200 254.200 C 233.200 254.530,233.380 254.800,233.600 254.800 C 233.820 254.800,234.000 255.078,234.000 255.417 C 234.000 255.756,234.360 256.420,234.800 256.892 C 235.240 257.364,235.600 257.987,235.600 258.275 C 235.600 258.564,235.780 258.800,236.000 258.800 C 236.220 258.800,236.400 259.078,236.400 259.417 C 236.400 259.756,236.760 260.420,237.200 260.892 C 237.640 261.364,238.000 261.987,238.000 262.275 C 238.000 262.564,238.180 262.800,238.400 262.800 C 238.620 262.800,238.800 263.160,238.800 263.600 C 238.800 264.040,238.980 264.400,239.200 264.400 C 239.420 264.400,239.600 264.597,239.600 264.838 C 239.600 265.079,239.972 265.799,240.427 266.438 L 241.254 267.600 281.027 267.600 L 320.800 267.600 320.800 237.600 L 320.800 207.600 275.627 207.600 C 230.805 207.600,230.452 207.606,230.200 208.400 M185.475 229.117 C 185.104 229.527,184.800 230.040,184.800 230.256 C 184.800 230.472,184.485 230.998,184.100 231.425 C 183.472 232.121,182.270 234.192,181.040 236.697 C 180.798 237.190,180.465 237.595,180.300 237.597 C 180.135 237.599,180.000 237.870,180.000 238.200 C 180.000 238.530,179.820 238.800,179.600 238.800 C 179.380 238.800,179.200 239.160,179.200 239.600 C 179.200 240.040,179.020 240.400,178.800 240.400 C 178.580 240.400,178.400 240.738,178.400 241.151 C 178.400 241.564,178.130 242.126,177.800 242.400 C 177.470 242.674,177.200 243.236,177.200 243.649 C 177.200 244.062,177.064 244.400,176.898 244.400 C 176.731 244.400,176.371 244.906,176.097 245.525 C 175.824 246.144,175.240 247.036,174.800 247.508 C 174.360 247.980,174.000 248.644,174.000 248.983 C 174.000 249.322,173.820 249.600,173.600 249.600 C 173.380 249.600,173.200 249.878,173.200 250.217 C 173.200 250.556,172.840 251.220,172.400 251.692 C 171.960 252.164,171.600 252.787,171.600 253.075 C 171.600 253.364,171.420 253.600,171.200 253.600 C 170.980 253.600,170.800 253.960,170.800 254.400 C 170.800 254.840,170.620 255.200,170.400 255.200 C 170.180 255.200,170.000 255.436,170.000 255.725 C 170.000 256.013,169.640 256.636,169.200 257.108 C 168.760 257.580,168.400 258.244,168.400 258.583 C 168.400 258.922,168.264 259.200,168.098 259.200 C 167.931 259.200,167.539 259.779,167.226 260.486 C 166.913 261.193,166.149 262.525,165.528 263.444 C 164.908 264.364,164.400 265.315,164.400 265.558 C 164.400 265.801,164.264 266.000,164.098 266.000 C 163.931 266.000,163.392 266.879,162.899 267.954 L 162.002 269.908 163.301 272.441 C 164.016 273.834,164.813 275.206,165.074 275.490 C 165.334 275.773,165.662 276.364,165.801 276.802 C 165.940 277.241,166.222 277.600,166.427 277.600 C 166.632 277.600,166.800 277.960,166.800 278.400 C 166.800 278.840,166.959 279.200,167.153 279.200 C 167.348 279.200,167.607 279.515,167.729 279.900 C 167.952 280.605,169.220 282.828,169.610 283.200 C 169.725 283.310,170.265 284.255,170.809 285.300 C 171.353 286.345,171.934 287.200,172.099 287.200 C 172.265 287.200,172.400 287.560,172.400 288.000 C 172.400 288.440,172.580 288.800,172.800 288.800 C 173.020 288.800,173.200 289.070,173.200 289.400 C 173.200 289.730,173.380 290.000,173.600 290.000 C 173.820 290.000,174.000 290.320,174.000 290.712 C 174.000 291.103,174.360 291.683,174.800 292.000 C 175.240 292.317,175.600 292.897,175.600 293.288 C 175.600 293.680,175.780 294.000,176.000 294.000 C 176.220 294.000,176.400 294.360,176.400 294.800 C 176.400 295.240,176.545 295.600,176.723 295.600 C 176.901 295.600,177.377 296.365,177.781 297.300 C 178.185 298.235,178.985 299.720,179.558 300.600 C 180.131 301.480,180.870 302.740,181.199 303.400 C 181.529 304.060,181.889 304.690,181.999 304.800 C 182.395 305.194,183.654 307.413,183.871 308.100 C 183.993 308.485,184.219 308.800,184.372 308.800 C 184.525 308.800,184.898 309.430,185.200 310.200 C 185.502 310.970,185.896 311.600,186.075 311.600 C 186.254 311.600,186.400 311.870,186.400 312.200 C 186.400 312.530,186.580 312.800,186.800 312.800 C 187.020 312.800,187.200 313.160,187.200 313.600 C 187.200 314.040,187.380 314.400,187.600 314.400 C 187.820 314.400,188.000 314.720,188.000 315.112 C 188.000 315.503,188.360 316.083,188.800 316.400 C 189.240 316.717,189.600 317.297,189.600 317.688 C 189.600 318.080,189.738 318.400,189.906 318.400 C 190.074 318.400,190.513 319.096,190.882 319.947 C 191.250 320.799,191.788 321.744,192.077 322.047 C 192.366 322.351,193.134 323.680,193.784 325.000 C 194.434 326.320,195.088 327.490,195.236 327.600 C 195.385 327.710,195.908 328.655,196.398 329.700 C 196.887 330.745,197.448 331.600,197.644 331.600 C 197.840 331.600,198.000 331.960,198.000 332.400 C 198.000 332.840,198.180 333.200,198.400 333.200 C 198.620 333.200,198.800 333.560,198.800 334.000 C 198.800 334.440,198.980 334.800,199.200 334.800 C 199.420 334.800,199.600 334.983,199.600 335.206 C 199.600 336.599,201.431 338.398,202.600 338.153 C 203.780 337.905,206.072 336.531,206.333 335.914 C 206.407 335.742,206.734 335.600,207.061 335.600 C 207.388 335.600,208.441 335.060,209.400 334.400 C 210.359 333.740,211.337 333.200,211.572 333.200 C 211.807 333.200,212.000 333.020,212.000 332.800 C 212.000 332.580,212.345 332.400,212.767 332.400 C 213.188 332.400,213.593 332.265,213.667 332.100 C 213.834 331.724,215.964 330.425,216.900 330.129 C 217.285 330.007,217.600 329.748,217.600 329.553 C 217.600 329.359,217.960 329.200,218.400 329.200 C 218.840 329.200,219.200 329.020,219.200 328.800 C 219.200 328.580,219.436 328.400,219.725 328.400 C 220.013 328.400,220.636 328.040,221.108 327.600 C 221.580 327.160,222.154 326.800,222.383 326.800 C 222.612 326.800,222.800 326.620,222.800 326.400 C 222.800 326.180,223.160 326.000,223.600 326.000 C 224.040 326.000,224.400 325.820,224.400 325.600 C 224.400 325.380,224.747 325.200,225.171 325.200 C 225.596 325.200,226.181 324.975,226.471 324.700 C 226.762 324.425,227.810 323.763,228.800 323.230 C 229.790 322.696,230.690 322.154,230.800 322.024 C 230.910 321.895,231.900 321.351,233.000 320.816 C 234.100 320.281,235.360 319.545,235.800 319.179 C 236.240 318.813,237.185 318.264,237.900 317.959 C 238.615 317.654,239.200 317.269,239.200 317.102 C 239.200 316.936,239.520 316.800,239.912 316.800 C 240.303 316.800,240.883 316.440,241.200 316.000 C 241.517 315.560,242.097 315.200,242.488 315.200 C 242.880 315.200,243.200 315.020,243.200 314.800 C 243.200 314.580,243.560 314.400,244.000 314.400 C 244.440 314.400,244.800 314.242,244.800 314.049 C 244.800 313.855,245.340 313.473,246.000 313.200 C 246.660 312.927,247.200 312.545,247.200 312.351 C 247.200 312.158,247.560 312.000,248.000 312.000 C 248.440 312.000,248.800 311.820,248.800 311.600 C 248.800 311.380,249.120 311.200,249.512 311.200 C 249.903 311.200,250.483 310.840,250.800 310.400 C 251.117 309.960,251.620 309.600,251.917 309.600 C 252.214 309.600,252.714 309.343,253.029 309.029 C 253.640 308.417,253.794 307.602,253.300 307.597 C 252.963 307.593,252.000 305.675,252.000 305.009 C 252.000 304.771,251.640 304.317,251.200 304.000 C 250.760 303.683,250.400 303.103,250.400 302.712 C 250.400 302.320,250.264 302.000,250.098 302.000 C 249.931 302.000,249.541 301.415,249.230 300.700 C 248.919 299.985,248.560 299.310,248.432 299.200 C 248.046 298.867,246.766 296.647,246.529 295.900 C 246.407 295.515,246.148 295.200,245.953 295.200 C 245.759 295.200,245.600 294.964,245.600 294.675 C 245.600 294.387,245.240 293.764,244.800 293.292 C 244.360 292.820,244.000 292.156,244.000 291.817 C 244.000 291.478,243.820 291.200,243.600 291.200 C 243.380 291.200,243.200 290.840,243.200 290.400 C 243.200 289.960,243.020 289.600,242.800 289.600 C 242.580 289.600,242.400 289.330,242.400 289.000 C 242.400 288.670,242.240 288.400,242.043 288.400 C 241.847 288.400,241.566 287.919,241.419 287.332 C 241.271 286.744,240.802 285.820,240.375 285.278 C 239.949 284.736,239.600 284.046,239.600 283.746 C 239.600 283.446,239.441 283.200,239.247 283.200 C 239.052 283.200,238.790 282.885,238.664 282.500 C 238.538 282.115,237.879 280.900,237.200 279.800 C 236.521 278.700,235.862 277.485,235.736 277.100 C 235.610 276.715,235.348 276.400,235.153 276.400 C 234.959 276.400,234.800 276.040,234.800 275.600 C 234.800 275.160,234.642 274.800,234.449 274.800 C 234.255 274.800,233.873 274.260,233.600 273.600 C 233.327 272.940,232.945 272.400,232.751 272.400 C 232.558 272.400,232.400 272.040,232.400 271.600 C 232.400 271.160,232.220 270.800,232.000 270.800 C 231.780 270.800,231.600 270.440,231.600 270.000 C 231.600 269.560,231.420 269.200,231.200 269.200 C 230.980 269.200,230.800 268.930,230.800 268.600 C 230.800 268.270,230.620 268.000,230.400 268.000 C 230.180 268.000,230.000 267.730,230.000 267.400 C 230.000 267.070,229.820 266.800,229.600 266.800 C 229.380 266.800,229.200 266.440,229.200 266.000 C 229.200 265.560,229.020 265.200,228.800 265.200 C 228.580 265.200,228.400 264.964,228.400 264.675 C 228.400 264.387,228.040 263.764,227.600 263.292 C 227.160 262.820,226.800 262.156,226.800 261.817 C 226.800 261.478,226.620 261.200,226.400 261.200 C 226.180 261.200,226.000 260.930,226.000 260.600 C 226.000 260.270,225.820 260.000,225.600 260.000 C 225.380 260.000,225.200 259.752,225.200 259.448 C 225.200 258.941,223.677 256.133,221.632 252.872 C 221.175 252.142,220.800 251.369,220.800 251.156 C 220.800 250.942,220.440 250.380,220.000 249.908 C 219.560 249.436,219.200 248.813,219.200 248.525 C 219.200 248.236,219.020 248.000,218.800 248.000 C 218.580 248.000,218.400 247.640,218.400 247.200 C 218.400 246.760,218.220 246.400,218.000 246.400 C 217.780 246.400,217.600 246.232,217.600 246.027 C 217.600 245.550,215.099 241.444,214.700 241.267 C 214.535 241.193,214.400 240.788,214.400 240.367 C 214.400 239.945,214.220 239.600,214.000 239.600 C 213.780 239.600,213.600 239.280,213.600 238.888 C 213.600 238.497,213.240 237.917,212.800 237.600 C 212.360 237.283,212.000 236.718,212.000 236.345 C 212.000 235.972,211.865 235.607,211.700 235.533 C 211.535 235.460,210.967 234.545,210.437 233.500 C 209.908 232.455,209.323 231.600,209.137 231.600 C 208.952 231.600,208.800 231.333,208.800 231.008 C 208.800 230.346,206.253 230.472,203.553 231.267 C 202.018 231.719,197.549 231.512,194.200 230.835 C 193.100 230.612,191.615 230.313,190.900 230.170 C 190.185 230.026,189.600 229.770,189.600 229.600 C 189.600 229.430,189.105 229.206,188.500 229.102 C 187.895 228.998,187.119 228.791,186.775 228.642 C 186.397 228.479,185.882 228.667,185.475 229.117 " stroke="none" fill="#ed7d1a" fill-rule="evenodd"></path><path id="path3" d="" stroke="none" fill="#00ffff" fill-rule="evenodd"></path></g></svg>